<?xml version="1.0" encoding="UTF-8" standalone="no"?>
<!-- Created with Inkscape (http://www.inkscape.org/) -->

<svg
   xmlns:dc="http://purl.org/dc/elements/1.1/"
   xmlns:cc="http://creativecommons.org/ns#"
   xmlns:rdf="http://www.w3.org/1999/02/22-rdf-syntax-ns#"
   xmlns:svg="http://www.w3.org/2000/svg"
   xmlns="http://www.w3.org/2000/svg"
   xmlns:xlink="http://www.w3.org/1999/xlink"
   xmlns:sodipodi="http://sodipodi.sourceforge.net/DTD/sodipodi-0.dtd"
   xmlns:inkscape="http://www.inkscape.org/namespaces/inkscape"
   width="600"
   height="600"
   id="svg2"
   version="1.1"
   inkscape:version="0.48.2 r9819"
   sodipodi:docname="plate-pig.svg">
  <defs
     id="defs4">
    <filter
       color-interpolation-filters="sRGB"
       id="filter4248"
       height="1.0264"
       width="1.0264"
       y="-0.0132"
       x="-0.0132"
       inkscape:collect="always">
      <feGaussianBlur
         id="feGaussianBlur4250"
         stdDeviation="3.1557166"
         inkscape:collect="always" />
    </filter>
    <linearGradient
       inkscape:collect="always"
       xlink:href="#linearGradient4658"
       id="linearGradient5205"
       gradientUnits="userSpaceOnUse"
       gradientTransform="translate(-25.763,51.549)"
       x1="438.41"
       y1="349.29999"
       x2="438.41"
       y2="957.40997" />
    <linearGradient
       id="linearGradient4658"
       y2="957.40997"
       gradientUnits="userSpaceOnUse"
       x2="438.41"
       gradientTransform="translate(-25.763,51.549)"
       y1="349.29999"
       x1="438.41"
       inkscape:collect="always">
      <stop
         id="stop4861"
         style="stop-color:#bfbfbf"
         offset="0" />
      <stop
         id="stop4863"
         style="stop-color:#bfbfbf;stop-opacity:0"
         offset="1" />
    </linearGradient>
    <filter
       color-interpolation-filters="sRGB"
       id="filter4375"
       height="1.0336"
       width="1.0336"
       y="-0.016799999"
       x="-0.016799999"
       inkscape:collect="always">
      <feGaussianBlur
         id="feGaussianBlur4377"
         stdDeviation="3.1090515"
         inkscape:collect="always" />
    </filter>
    <linearGradient
       inkscape:collect="always"
       xlink:href="#linearGradient4660"
       id="linearGradient5207"
       gradientUnits="userSpaceOnUse"
       gradientTransform="translate(-25.763,51.549)"
       x1="535.38"
       y1="232.12"
       x2="398"
       y2="925.08002" />
    <linearGradient
       id="linearGradient4660"
       y2="925.08002"
       gradientUnits="userSpaceOnUse"
       x2="398"
       gradientTransform="translate(-25.763,51.549)"
       y1="232.12"
       x1="535.38"
       inkscape:collect="always">
      <stop
         id="stop4855"
         style="stop-color:#ababab"
         offset="0" />
      <stop
         id="stop4857"
         style="stop-color:#ababab;stop-opacity:0"
         offset="1" />
    </linearGradient>
    <filter
       color-interpolation-filters="sRGB"
       id="filter4371"
       height="1.038"
       width="1.038"
       y="-0.018999999"
       x="-0.018999999"
       inkscape:collect="always">
      <feGaussianBlur
         id="feGaussianBlur4373"
         stdDeviation="3.1090515"
         inkscape:collect="always" />
    </filter>
    <radialGradient
       inkscape:collect="always"
       xlink:href="#radialGradient4662"
       id="radialGradient5209"
       gradientUnits="userSpaceOnUse"
       gradientTransform="matrix(2.1237,3.0261e-8,-2.7653e-8,1.9408,-437.93,-646.02)"
       cx="390.89999"
       cy="679.04999"
       fx="230.81"
       fy="648.62"
       r="183.82001" />
    <radialGradient
       id="radialGradient4662"
       fx="230.81"
       fy="648.62"
       gradientUnits="userSpaceOnUse"
       cy="679.04999"
       cx="390.89999"
       gradientTransform="matrix(2.1237,3.0261e-8,-2.7653e-8,1.9408,-437.93,-646.02)"
       r="183.82001"
       inkscape:collect="always">
      <stop
         id="stop4312"
         style="stop-color:#ffffff"
         offset="0" />
      <stop
         id="stop4314"
         style="stop-color:#fdfdfd;stop-opacity:0"
         offset="1" />
    </radialGradient>
    <filter
       color-interpolation-filters="sRGB"
       id="filter4367"
       height="1.0423"
       width="1.0423"
       y="-0.021155"
       x="-0.021155"
       inkscape:collect="always">
      <feGaussianBlur
         id="feGaussianBlur4369"
         stdDeviation="3.1090515"
         inkscape:collect="always" />
    </filter>
    <filter
       color-interpolation-filters="sRGB"
       id="filter4613"
       height="1.0168"
       width="1.0168"
       y="-0.0083999997"
       x="-0.0083999997"
       inkscape:collect="always">
      <feGaussianBlur
         id="feGaussianBlur4615"
         stdDeviation="2.047074"
         inkscape:collect="always" />
    </filter>
    <linearGradient
       inkscape:collect="always"
       xlink:href="#linearGradient4664"
       id="linearGradient5211"
       gradientUnits="userSpaceOnUse"
       x1="406.29001"
       y1="893.69"
       x2="398.09"
       y2="293.70001" />
    <linearGradient
       id="linearGradient4664"
       y2="293.70001"
       gradientUnits="userSpaceOnUse"
       x2="398.09"
       y1="893.69"
       x1="406.29001"
       inkscape:collect="always">
      <stop
         id="stop4867"
         style="stop-color:#000000;stop-opacity:.020231"
         offset="0" />
      <stop
         id="stop4869"
         style="stop-color:#ffffff"
         offset="1" />
    </linearGradient>
    <filter
       color-interpolation-filters="sRGB"
       id="filter4733"
       height="1.0816"
       width="1.0816"
       y="-0.040800001"
       x="-0.040800001"
       inkscape:collect="always">
      <feGaussianBlur
         id="feGaussianBlur4735"
         stdDeviation="9.942931"
         inkscape:collect="always" />
    </filter>
    <linearGradient
       inkscape:collect="always"
       xlink:href="#linearGradient4666"
       id="linearGradient5213"
       gradientUnits="userSpaceOnUse"
       x1="450.57001"
       y1="197.00999"
       x2="208.89999"
       y2="1260.9" />
    <linearGradient
       id="linearGradient4666"
       y2="1260.9"
       gradientUnits="userSpaceOnUse"
       x2="208.89999"
       y1="197.00999"
       x1="450.57001"
       inkscape:collect="always">
      <stop
         id="stop4885"
         style="stop-color:#000000;stop-opacity:.020231"
         offset="0" />
      <stop
         id="stop4887"
         style="stop-color:#7c7c7c;stop-opacity:.42775"
         offset="1" />
    </linearGradient>
    <filter
       color-interpolation-filters="sRGB"
       id="filter4196"
       height="1.0432"
       width="1.0432"
       y="-0.021600001"
       x="-0.021600001"
       inkscape:collect="always">
      <feGaussianBlur
         id="feGaussianBlur4198"
         stdDeviation="5.2639047"
         inkscape:collect="always" />
    </filter>
    <linearGradient
       inkscape:collect="always"
       xlink:href="#linearGradient4668"
       id="linearGradient5215"
       gradientUnits="userSpaceOnUse"
       x1="319.14001"
       y1="906.70001"
       x2="412.35999"
       y2="173.59" />
    <linearGradient
       id="linearGradient4668"
       y2="173.59"
       gradientUnits="userSpaceOnUse"
       x2="412.35999"
       y1="906.70001"
       x1="319.14001"
       inkscape:collect="always">
      <stop
         id="stop4843"
         style="stop-color:#ffffff"
         offset="0" />
      <stop
         id="stop4845"
         style="stop-color:#ececec;stop-opacity:0"
         offset="1" />
    </linearGradient>
    <filter
       color-interpolation-filters="sRGB"
       id="filter4785"
       height="1.0768"
       width="1.0768"
       y="-0.038400002"
       x="-0.038400002"
       inkscape:collect="always">
      <feGaussianBlur
         id="feGaussianBlur4787"
         stdDeviation="9.3580527"
         inkscape:collect="always" />
    </filter>
    <linearGradient
       inkscape:collect="always"
       xlink:href="#linearGradient4670"
       id="linearGradient5217"
       gradientUnits="userSpaceOnUse"
       gradientTransform="translate(-25.763,64.406)"
       x1="397.14001"
       y1="306.64999"
       x2="397.14001"
       y2="476.64999" />
    <linearGradient
       id="linearGradient4670"
       y2="476.64999"
       gradientUnits="userSpaceOnUse"
       x2="397.14001"
       gradientTransform="translate(-25.763,64.406)"
       y1="306.64999"
       x1="397.14001"
       inkscape:collect="always">
      <stop
         id="stop4989"
         style="stop-color:#000000"
         offset="0" />
      <stop
         id="stop4991"
         style="stop-color:#000000;stop-opacity:0"
         offset="1" />
    </linearGradient>
    <filter
       color-interpolation-filters="sRGB"
       id="filter5071"
       height="1.2629"
       width="1.0903"
       y="-0.13143"
       x="-0.045141"
       inkscape:collect="always">
      <feGaussianBlur
         id="feGaussianBlur5073"
         stdDeviation="7.1741234"
         inkscape:collect="always" />
    </filter>
    <radialGradient
       inkscape:collect="always"
       xlink:href="#linearGradient5077"
       id="radialGradient5219"
       gradientUnits="userSpaceOnUse"
       gradientTransform="matrix(1.8904,0,0,1.2477,150.41,-525.92)"
       cx="288.57001"
       cy="780.92999"
       r="35.714001" />
    <linearGradient
       id="linearGradient5077"
       inkscape:collect="always">
      <stop
         id="stop5079"
         style="stop-color:#ffffff"
         offset="0" />
      <stop
         id="stop5081"
         style="stop-color:#ffffff;stop-opacity:0"
         offset="1" />
    </linearGradient>
    <radialGradient
       inkscape:collect="always"
       xlink:href="#linearGradient5077"
       id="radialGradient5221"
       gradientUnits="userSpaceOnUse"
       gradientTransform="matrix(0.94435,0,0,0.62327,423.43,-38.289)"
       cx="288.57001"
       cy="780.92999"
       r="35.714001" />
    <radialGradient
       inkscape:collect="always"
       xlink:href="#linearGradient4763"
       id="radialGradient5223"
       gradientUnits="userSpaceOnUse"
       gradientTransform="matrix(4.5624,0.13308,-0.37614,3.1414,-607.16,-2081.7)"
       cx="289.75"
       cy="760.90997"
       fx="288.47"
       fy="735.94"
       r="35.714001" />
    <linearGradient
       id="linearGradient4763"
       inkscape:collect="always">
      <stop
         id="stop4765"
         style="stop-color:#ffffff"
         offset="0" />
      <stop
         id="stop4767"
         style="stop-color:#ececec;stop-opacity:0"
         offset="1" />
    </linearGradient>
    <filter
       color-interpolation-filters="sRGB"
       id="filter5106"
       height="1.2085"
       width="1.0831"
       y="-0.10426"
       x="-0.041536"
       inkscape:collect="always">
      <feGaussianBlur
         id="feGaussianBlur5108"
         stdDeviation="3.9544194"
         inkscape:collect="always" />
    </filter>
    <radialGradient
       inkscape:collect="always"
       xlink:href="#linearGradient4763"
       id="radialGradient5225"
       gradientUnits="userSpaceOnUse"
       gradientTransform="matrix(4.5624,0.13308,-0.37614,3.1414,-607.16,-2081.7)"
       cx="289.75"
       cy="760.90997"
       fx="288.47"
       fy="735.94"
       r="35.714001" />
    <inkscape:path-effect
       effect="skeletal"
       id="path-effect3771"
       is_visible="true"
       pattern="m -330.83135,-10.601263 c 0,-2.760001 2.24,-5.000001 5,-5.000001 2.76,0 5,2.24 5,5.000001 0,2.7599995 -2.24,4.9999995 -5,4.9999995 -2.76,0 -5,-2.24 -5,-4.9999995 z"
       copytype="single_stretched"
       prop_scale="1"
       scale_y_rel="false"
       spacing="0"
       normal_offset="0"
       tang_offset="0"
       prop_units="false"
       vertical_pattern="false"
       fuse_tolerance="0" />
    <inkscape:path-effect
       effect="skeletal"
       id="path-effect4665"
       is_visible="true"
       pattern="m -330.83135,-10.601263 c 0,-2.760001 2.24,-5.000001 5,-5.000001 2.76,0 5,2.24 5,5.000001 0,2.7599995 -2.24,4.9999995 -5,4.9999995 -2.76,0 -5,-2.24 -5,-4.9999995 z"
       copytype="single_stretched"
       prop_scale="1"
       scale_y_rel="false"
       spacing="0"
       normal_offset="0"
       tang_offset="0"
       prop_units="false"
       vertical_pattern="false"
       fuse_tolerance="0" />
    <inkscape:path-effect
       effect="skeletal"
       id="path-effect4667"
       is_visible="true"
       pattern="m -330.83135,-10.601263 c 0,-2.760001 2.24,-5.000001 5,-5.000001 2.76,0 5,2.24 5,5.000001 0,2.7599995 -2.24,4.9999995 -5,4.9999995 -2.76,0 -5,-2.24 -5,-4.9999995 z"
       copytype="single_stretched"
       prop_scale="1"
       scale_y_rel="false"
       spacing="0"
       normal_offset="0"
       tang_offset="0"
       prop_units="false"
       vertical_pattern="false"
       fuse_tolerance="0" />
    <inkscape:path-effect
       effect="skeletal"
       id="path-effect4669"
       is_visible="true"
       pattern="m -330.83135,-10.601263 c 0,-2.760001 2.24,-5.000001 5,-5.000001 2.76,0 5,2.24 5,5.000001 0,2.7599995 -2.24,4.9999995 -5,4.9999995 -2.76,0 -5,-2.24 -5,-4.9999995 z"
       copytype="single_stretched"
       prop_scale="1"
       scale_y_rel="false"
       spacing="0"
       normal_offset="0"
       tang_offset="0"
       prop_units="false"
       vertical_pattern="false"
       fuse_tolerance="0" />
    <inkscape:path-effect
       effect="skeletal"
       id="path-effect4671"
       is_visible="true"
       pattern="m -330.83135,-10.601263 c 0,-2.760001 2.24,-5.000001 5,-5.000001 2.76,0 5,2.24 5,5.000001 0,2.7599995 -2.24,4.9999995 -5,4.9999995 -2.76,0 -5,-2.24 -5,-4.9999995 z"
       copytype="single_stretched"
       prop_scale="1"
       scale_y_rel="false"
       spacing="0"
       normal_offset="0"
       tang_offset="0"
       prop_units="false"
       vertical_pattern="false"
       fuse_tolerance="0" />
    <inkscape:path-effect
       effect="skeletal"
       id="path-effect4673"
       is_visible="true"
       pattern="m -330.83135,-10.601263 c 0,-2.760001 2.24,-5.000001 5,-5.000001 2.76,0 5,2.24 5,5.000001 0,2.7599995 -2.24,4.9999995 -5,4.9999995 -2.76,0 -5,-2.24 -5,-4.9999995 z"
       copytype="single_stretched"
       prop_scale="1"
       scale_y_rel="false"
       spacing="0"
       normal_offset="0"
       tang_offset="0"
       prop_units="false"
       vertical_pattern="false"
       fuse_tolerance="0" />
    <inkscape:path-effect
       effect="skeletal"
       id="path-effect4675"
       is_visible="true"
       pattern="m -330.83135,-10.601263 c 0,-2.760001 2.24,-5.000001 5,-5.000001 2.76,0 5,2.24 5,5.000001 0,2.7599995 -2.24,4.9999995 -5,4.9999995 -2.76,0 -5,-2.24 -5,-4.9999995 z"
       copytype="single_stretched"
       prop_scale="1"
       scale_y_rel="false"
       spacing="0"
       normal_offset="0"
       tang_offset="0"
       prop_units="false"
       vertical_pattern="false"
       fuse_tolerance="0" />
    <inkscape:path-effect
       effect="skeletal"
       id="path-effect4677"
       is_visible="true"
       pattern="m -330.83135,-10.601263 c 0,-2.760001 2.24,-5.000001 5,-5.000001 2.76,0 5,2.24 5,5.000001 0,2.7599995 -2.24,4.9999995 -5,4.9999995 -2.76,0 -5,-2.24 -5,-4.9999995 z"
       copytype="single_stretched"
       prop_scale="1"
       scale_y_rel="false"
       spacing="0"
       normal_offset="0"
       tang_offset="0"
       prop_units="false"
       vertical_pattern="false"
       fuse_tolerance="0" />
  </defs>
  <sodipodi:namedview
     id="base"
     pagecolor="#ffffff"
     bordercolor="#666666"
     borderopacity="1.0"
     inkscape:pageopacity="0.0"
     inkscape:pageshadow="2"
     inkscape:zoom="0.97035431"
     inkscape:cx="255.04344"
     inkscape:cy="258.1003"
     inkscape:document-units="px"
     inkscape:current-layer="g4498"
     showgrid="true"
     borderlayer="true"
     inkscape:showpageshadow="false"
     inkscape:window-width="1400"
     inkscape:window-height="861"
     inkscape:window-x="268"
     inkscape:window-y="81"
     inkscape:window-maximized="0">
    <inkscape:grid
       type="xygrid"
       id="grid3964"
       empspacing="100"
       visible="true"
       enabled="true"
       snapvisiblegridlinesonly="false" />
  </sodipodi:namedview>
  <metadata
     id="metadata7">
    <rdf:RDF>
      <cc:Work
         rdf:about="">
        <dc:format>image/svg+xml</dc:format>
        <dc:type
           rdf:resource="http://purl.org/dc/dcmitype/StillImage" />
        <dc:title></dc:title>
      </cc:Work>
    </rdf:RDF>
  </metadata>
  <g
     inkscape:label="Layer 1"
     inkscape:groupmode="layer"
     id="layer1"
     transform="translate(0,-452.36218)">
    <g
       id="g4070"
       transform="translate(1.7243141,-18.967456)">
      <g
         id="g4498"
         transform="matrix(1.7408612,0,0,1.7408612,93.412132,677.53436)">
        <g
           id="g3057"
           transform="matrix(0.50342921,0,0,0.50254682,-69.66785,-271.98441)">
          <circle
             id="circle4626"
             style="color:#000000;fill:#ffffff;filter:url(#filter4248)"
             transform="matrix(0.93604,0.3519,-0.3519,0.93604,256.28,-80.969)"
             cy="643.28003"
             cx="366.17999"
             r="286.88"
             d="m 653.06,643.28003 c 0,158.43945 -128.44056,286.88 -286.88001,286.88 -158.43945,0 -286.880002,-128.44055 -286.880002,-286.88 0,-158.43945 128.440552,-286.88001 286.880002,-286.88001 158.43945,0 286.88001,128.44056 286.88001,286.88001 z"
             sodipodi:cx="366.17999"
             sodipodi:cy="643.28003"
             sodipodi:rx="286.88"
             sodipodi:ry="286.88" />
          <circle
             id="circle4628"
             style="color:#000000;fill:#e7e7e7;stroke:#b3b3b3;stroke-width:3.42609668"
             cx="579.08002"
             transform="matrix(0.93603497,0.351907,-0.351907,0.93603497,0,0)"
             cy="477.81"
             r="292.44"
             d="m 871.52002,477.81 c 0,161.51015 -130.92985,292.44 -292.44,292.44 -161.51016,0 -292.44001,-130.92985 -292.44001,-292.44 0,-161.51016 130.92985,-292.44 292.44001,-292.44 161.51015,0 292.44,130.92984 292.44,292.44 z"
             sodipodi:cx="579.08002"
             sodipodi:cy="477.81"
             sodipodi:rx="292.44"
             sodipodi:ry="292.44" />
          <circle
             id="circle4630"
             style="color:#000000;fill:url(#linearGradient5205);filter:url(#filter4375)"
             transform="matrix(0.93604,0.3519,-0.3519,0.93604,256.28,-80.969)"
             cy="643.78998"
             cx="367.69"
             r="222.08"
             d="m 589.77,643.78998 c 0,122.6514 -99.4286,222.08 -222.08,222.08 -122.6514,0 -222.08,-99.4286 -222.08,-222.08 0,-122.6514 99.4286,-222.08 222.08,-222.08 122.6514,0 222.08,99.4286 222.08,222.08 z"
             sodipodi:cx="367.69"
             sodipodi:cy="643.78998"
             sodipodi:rx="222.08"
             sodipodi:ry="222.08" />
          <circle
             id="circle4632"
             style="color:#000000;fill:url(#linearGradient5207);filter:url(#filter4371)"
             cx="367.69"
             transform="matrix(0.93604,0.3519,-0.3519,0.93604,256.28,-80.969)"
             cy="643.78998"
             r="196.36"
             d="m 564.05,643.78998 c 0,108.44663 -87.91336,196.36 -196.36,196.36 -108.44663,0 -196.36,-87.91337 -196.36,-196.36 0,-108.44664 87.91337,-196.36 196.36,-196.36 108.44664,0 196.36,87.91336 196.36,196.36 z"
             sodipodi:cx="367.69"
             sodipodi:cy="643.78998"
             sodipodi:rx="196.36"
             sodipodi:ry="196.36" />
          <circle
             id="circle4634"
             style="color:#000000;fill:url(#radialGradient5209);filter:url(#filter4367)"
             transform="matrix(0.9615,0.36147,-0.36147,0.9615,185.37,-21.157)"
             cy="552.81"
             cx="402.07999"
             r="176.36"
             d="m 578.43999,552.81 c 0,97.40094 -78.95906,176.36 -176.36,176.36 -97.40094,0 -176.36,-78.95906 -176.36,-176.36 0,-97.40094 78.95906,-176.36 176.36,-176.36 97.40094,0 176.36,78.95906 176.36,176.36 z"
             sodipodi:cx="402.07999"
             sodipodi:cy="552.81"
             sodipodi:rx="176.36"
             sodipodi:ry="176.36" />
          <circle
             id="circle4636"
             style="color:#000000;fill:none;stroke:#e6e6e6;stroke-width:2.14565039;filter:url(#filter4613)"
             transform="matrix(0.93094,0.34998,-0.34998,0.93094,215.25,-38.954)"
             cy="592.23999"
             cx="393.45001"
             r="292.44"
             d="m 685.89001,592.23999 c 0,161.51015 -130.92984,292.44 -292.44,292.44 -161.51015,0 -292.44,-130.92985 -292.44,-292.44 0,-161.51015 130.92985,-292.44 292.44,-292.44 161.51016,0 292.44,130.92985 292.44,292.44 z"
             sodipodi:cx="393.45001"
             sodipodi:cy="592.23999"
             sodipodi:rx="292.44"
             sodipodi:ry="292.44" />
          <circle
             id="circle4638"
             style="color:#000000;fill:none;stroke:url(#linearGradient5211);stroke-width:8.19625187;filter:url(#filter4733)"
             cx="393.45001"
             transform="matrix(-0.68375,-0.1336,0.1336,-0.68375,564.16,1107.6)"
             cy="592.23999"
             r="292.44"
             d="m 685.89001,592.23999 c 0,161.51015 -130.92984,292.44 -292.44,292.44 -161.51015,0 -292.44,-130.92985 -292.44,-292.44 0,-161.51015 130.92985,-292.44 292.44,-292.44 161.51016,0 292.44,130.92985 292.44,292.44 z"
             sodipodi:cx="393.45001"
             sodipodi:cy="592.23999"
             sodipodi:rx="292.44"
             sodipodi:ry="292.44" />
          <circle
             id="circle4640"
             style="color:#000000;fill:none;stroke:url(#linearGradient5213);stroke-width:8.19625187;filter:url(#filter4196)"
             transform="matrix(0.66265,0.20728,-0.20728,0.66265,236.29,176.08)"
             cy="592.23999"
             cx="393.45001"
             r="292.44"
             d="m 685.89001,592.23999 c 0,161.51015 -130.92984,292.44 -292.44,292.44 -161.51015,0 -292.44,-130.92985 -292.44,-292.44 0,-161.51015 130.92985,-292.44 292.44,-292.44 161.51016,0 292.44,130.92985 292.44,292.44 z"
             sodipodi:cx="393.45001"
             sodipodi:cy="592.23999"
             sodipodi:rx="292.44"
             sodipodi:ry="292.44" />
          <circle
             id="circle4642"
             style="opacity:0.047;color:#000000;fill:none;stroke:url(#linearGradient5215);stroke-width:8.19625187;filter:url(#filter4785)"
             cx="393.45001"
             transform="matrix(-0.65524,-0.38061,-0.38061,0.65524,857.48,411.78)"
             cy="592.23999"
             r="292.44"
             d="m 685.89001,592.23999 c 0,161.51015 -130.92984,292.44 -292.44,292.44 -161.51015,0 -292.44,-130.92985 -292.44,-292.44 0,-161.51015 130.92985,-292.44 292.44,-292.44 161.51016,0 292.44,130.92985 292.44,292.44 z"
             sodipodi:cx="393.45001"
             sodipodi:cy="592.23999"
             sodipodi:rx="292.44"
             sodipodi:ry="292.44" />
          <path
             id="path4644"
             style="opacity:0.36499999;fill:url(#linearGradient5217);filter:url(#filter5071)"
             d="m 182.81,535.34 c 5.7143,0 57.143,-114.29 202.86,-101.43 145.71,12.857 178.57,130 178.57,130 0,0 -66.161,-115.3 -187.14,-114.29 -145.72,1.2262 -172.86,77.143 -194.29,85.714 z"
             sodipodi:nodetypes="cscsc"
             inkscape:connector-curvature="0"
             transform="matrix(0.93604,0.3519,-0.3519,0.93604,256.28,-80.969)" />
          <ellipse
             id="ellipse4646"
             style="color:#000000;fill:url(#radialGradient5219)"
             rx="67.515999"
             transform="matrix(0.73298234,0.68024767,-0.68024767,0.73298234,0,0)"
             ry="44.561001"
             cy="448.44"
             cx="695.94"
             d="m 763.456,448.44 c 0,24.61036 -30.22794,44.561 -67.516,44.561 -37.28805,0 -67.516,-19.95064 -67.516,-44.561 0,-24.61036 30.22795,-44.561 67.516,-44.561 37.28806,0 67.516,19.95064 67.516,44.561 z"
             sodipodi:cx="695.94"
             sodipodi:cy="448.44"
             sodipodi:rx="67.515999"
             sodipodi:ry="44.561001" />
          <ellipse
             id="ellipse4648"
             style="color:#000000;fill:url(#radialGradient5221)"
             rx="33.727001"
             ry="22.26"
             transform="matrix(0.73298234,0.68024767,-0.68024767,0.73298234,0,0)"
             cy="448.44"
             cx="695.94"
             d="m 729.667,448.44 c 0,12.29386 -15.10009,22.26 -33.727,22.26 -18.62691,0 -33.727,-9.96614 -33.727,-22.26 0,-12.29386 15.10009,-22.26 33.727,-22.26 18.62691,0 33.727,9.96614 33.727,22.26 z"
             sodipodi:cx="695.94"
             sodipodi:cy="448.44"
             sodipodi:rx="33.727001"
             sodipodi:ry="22.26" />
          <path
             id="path4650"
             style="color:#000000;fill:url(#radialGradient5223);filter:url(#filter5106)"
             d="m 564.47,358.29 c 0,8.4547 9.0721,47.228 3.3632,55.04 -16.639,-22.241 -81.078,-43.101 -154.06,-43.699 -68.716,-0.56316 -127.96,45.61 -134.54,39.938 -5.7089,-7.8112 -1.7188,-49.691 -1.7188,-58.146 4.0592,-49.502 102.98,-51.199 140.05,-51.527 37.334,1.4188 145.71,17.471 146.91,58.395 z"
             sodipodi:nodetypes="ccscccc"
             inkscape:connector-curvature="0"
             transform="matrix(0.288,-0.95763,0.93856,0.34513,-302.33,862.54)" />
          <path
             id="path4652"
             style="color:#000000;fill:url(#radialGradient5225);filter:url(#filter5106)"
             d="m 564.47,358.29 c 0,8.4547 9.0721,47.228 3.3632,55.04 -16.639,-22.241 -81.078,-43.101 -154.06,-43.699 -68.716,-0.56316 -127.96,45.61 -134.54,39.938 -5.7089,-7.8112 -1.7188,-49.691 -1.7188,-58.146 4.0592,-49.502 102.98,-51.199 140.05,-51.527 37.334,1.4188 145.71,17.471 146.91,58.395 z"
             sodipodi:nodetypes="ccscccc"
             inkscape:connector-curvature="0"
             transform="matrix(0.4142,-0.91019,-0.93347,-0.35865,743.04,1255.5)" />
          <circle
             id="path25259"
             style="color:#000000;fill:none"
             cx="-545.46997"
             transform="matrix(-0.95797,-0.28685,0.28685,-0.95797,0,0)"
             cy="-515.46997"
             r="241.92999"
             d="m -303.53998,-515.46997 c 0,133.61424 -108.31575,241.92999 -241.92999,241.92999 -133.61425,0 -241.92999,-108.31575 -241.92999,-241.92999 0,-133.61425 108.31574,-241.92999 241.92999,-241.92999 133.61424,0 241.92999,108.31574 241.92999,241.92999 z"
             sodipodi:cx="-545.46997"
             sodipodi:cy="-515.46997"
             sodipodi:rx="241.92999"
             sodipodi:ry="241.92999" />
        </g>
        <path
           style="fill:#000128;fill-opacity:0"
           d="m 120.11494,-62.216073 c -0.12323,-0.241696 -0.21423,-0.255505 -0.51589,-0.07835 -0.41039,0.24106 -0.84219,-0.005 -0.84219,-0.479595 0,-0.143687 -0.0788,-0.207789 -0.17509,-0.142464 -0.0963,0.06539 -0.36457,0.06655 -0.59609,0.003 -0.34508,-0.09509 -0.40307,-0.194211 -0.3217,-0.550003 0.0805,-0.352084 0.0287,-0.445022 -0.27383,-0.492193 -0.29607,-0.04622 -0.38333,-0.1927 -0.42286,-0.710219 -0.061,-0.798266 0.23208,-1.107929 1.18041,-1.247287 0.83716,-0.123041 0.95427,-0.488364 0.38809,-1.210796 -0.37341,-0.476467 -0.52226,-0.524663 -1.98212,-0.641825 -0.97231,-0.07805 -1.85441,-0.261156 -2.29725,-0.476889 -1.42573,-0.694563 -2.51588,-2.549105 -3.28681,-5.591404 -0.51425,-2.02937 -0.57288,-2.126085 -1.21053,-1.996668 -0.3254,0.06603 -0.64487,0.01401 -0.82863,-0.134878 -0.4158,-0.336932 -0.62712,-1.490546 -0.50393,-2.751264 l 0.10394,-1.063809 -0.72391,0.06364 c -0.5819,0.05114 -0.73496,0.0024 -0.78029,-0.250399 -0.0647,-0.360323 0.491,-0.998875 1.26431,-1.452739 l 0.53138,-0.311893 -0.5508,-0.791975 c -1.13191,-1.627549 -1.22318,-2.625608 -0.22126,-2.419313 0.50578,0.104147 0.57582,0.06385 0.76659,-0.441705 0.31477,-0.834085 0.76826,-1.030408 1.2449,-0.538935 l 0.38636,0.39838 0.347,-0.746505 c 0.38261,-0.823129 0.72751,-0.947843 1.01137,-0.365708 l 0.18568,0.380807 0.38527,-0.397268 c 1.04448,-1.076939 1.3338,0.221857 0.672,3.016566 -0.47394,2.001423 -0.50489,2.40557 -0.23417,3.057682 0.35505,0.855334 1.05784,1.038778 4.59101,1.198366 3.26386,0.147429 4.16826,0.326094 5.03896,0.995453 0.1993,0.153208 0.41597,0.278568 0.48149,0.278568 0.0656,0 0.36085,-0.497806 0.65632,-1.106237 0.93454,-1.924438 2.99742,-3.50525 5.22636,-4.00504 1.25725,-0.281903 2.22854,-0.03107 2.65668,0.68609 0.26107,0.437318 0.26179,0.52706 0.0104,1.294332 -0.26595,0.811747 -0.2642,0.829531 0.11301,1.155201 0.68743,0.593476 0.64049,1.937779 -0.10394,2.976474 -0.29101,0.40606 -0.32096,0.559664 -0.16319,0.836939 0.45845,0.805699 0.0818,1.410084 -1.38085,2.215442 -0.45565,0.250906 -0.99733,0.708354 -1.2037,1.016547 -0.20642,0.308196 -0.9488,0.985135 -1.64979,1.504291 -2.3437,1.735795 -3.53522,3.215675 -3.85668,4.790095 -0.22606,1.107171 -0.55452,1.809542 -1.31909,2.820704 -0.34033,0.450086 -0.74397,1.084324 -0.897,1.409386 -0.30214,0.641881 -0.66345,0.761357 -0.89993,0.29759 z m 1.528,-2.489651 c 0.52685,-0.758145 0.87643,-1.673351 0.95026,-2.48798 0.0645,-0.712126 -0.15575,-0.846293 -1.07752,-0.656236 l -0.52196,0.107616 -0.0458,1.818714 c -0.0277,1.095375 0.0184,1.818704 0.11584,1.818704 0.0889,0 0.34956,-0.270364 0.57918,-0.600818 z m -1.58869,-1.740364 c 0.12518,-0.08707 0.19676,-0.380513 0.16568,-0.679189 -0.0443,-0.427199 -0.14442,-0.537083 -0.53312,-0.58578 -0.40833,-0.05115 -0.45985,-0.01117 -0.35151,0.272774 0.0699,0.183014 0.16333,0.51688 0.20781,0.741926 0.0877,0.443638 0.17311,0.485463 0.51114,0.250269 z m 3.01063,-2.384206 c 0.22783,-0.122268 0.70158,-0.597571 1.05278,-1.056209 0.60926,-0.795685 0.63345,-0.876051 0.52752,-1.752604 -0.14792,-1.223691 -1.29759,-4.538412 -1.84963,-5.332783 -0.60481,-0.870301 -1.89292,-1.487442 -3.22443,-1.544825 -1.01734,-0.04388 -1.06057,-0.02831 -1.01093,0.36352 0.0634,0.500542 -0.61385,0.845911 -1.32334,0.674876 -0.56947,-0.137271 -0.60207,0.0958 -0.1146,0.819526 0.2129,0.316075 0.31049,0.648685 0.24514,0.8356 -0.0915,0.261619 -0.2515,0.29207 -1.01647,0.193391 -0.52626,-0.06789 -0.90791,-0.046 -0.90791,0.05216 0,0.09307 0.29825,0.449473 0.66278,0.79192 0.61712,0.579764 0.66276,0.688453 0.66276,1.577932 0,1.704968 0.64944,2.62651 2.03969,2.894328 1.86319,0.358936 4.42234,-1.015088 4.42234,-2.374394 0,-0.280441 -0.0817,-0.50989 -0.18155,-0.50989 -0.2451,0 -1.13882,0.588259 -1.16471,0.766631 -0.0112,0.07846 -0.0393,0.224489 -0.0622,0.324506 -0.0229,0.100063 -0.0507,0.263691 -0.062,0.363712 -0.0354,0.310587 -0.42778,0.199954 -0.64503,-0.181862 -0.11382,-0.200042 -0.34388,-0.363707 -0.51126,-0.363707 -0.35203,0 -0.65897,-0.36439 -1.0989,-1.304516 -0.26069,-0.557129 -0.2766,-0.7156 -0.0958,-0.954738 0.32428,-0.42886 1.31839,-0.352373 2.0817,0.160162 0.51374,0.344939 0.80228,0.421336 1.28321,0.33969 0.85666,-0.145431 1.11934,0.143164 1.11934,1.229774 0,0.723687 -0.0907,0.994047 -0.50866,1.516539 -0.71887,0.898623 -1.41795,1.324584 -2.71619,1.655036 -2.65231,0.675126 -4.50927,-0.693736 -4.61095,-3.398937 l -0.0432,-1.152505 -0.78481,-0.05551 -0.7848,-0.05552 0.34689,0.730441 c 0.65343,1.375931 0.0825,1.76763 -1.20897,0.829543 -0.33981,-0.246794 -0.6567,-0.448725 -0.70421,-0.448725 -0.0476,0 -0.0864,0.539761 -0.0864,1.199483 0,1.396444 0.27661,2.03864 1.1712,2.719061 0.32902,0.250269 0.92708,0.523886 1.32903,0.608049 1.11547,0.2336 7.27596,0.107475 7.77273,-0.159143 z m 3.80396,-3.452968 c 1.521,-1.133644 1.4973,-1.395334 -0.0981,-1.083912 -1.66772,0.325513 -1.7352,0.399736 -1.44497,1.589104 0.12277,0.503171 0.24295,0.463832 1.54306,-0.505192 z m -13.75053,-1.681942 c 0.78502,0.48741 0.89041,0.289112 0.16093,-0.302832 -0.65959,-0.535237 -0.55208,-0.817691 0.35402,-0.930133 0.59467,-0.07378 0.72303,-0.153447 0.68123,-0.422668 -0.0888,-0.572356 0.28668,-0.850329 1.1488,-0.850329 0.86587,0 0.93323,-0.07602 0.55437,-0.625792 -0.31381,-0.45537 -0.31129,-0.993678 0.005,-1.127012 0.51937,-0.218746 0.20745,-0.386926 -0.94969,-0.512076 -1.99524,-0.215785 -2.89309,-0.878746 -3.06201,-2.260967 -0.11401,-0.932972 -0.33252,-1.130636 -1.29414,-1.170654 -0.59885,-0.02501 -0.82212,0.04832 -1.01102,0.331732 -0.50137,0.752261 -0.44831,1.135623 0.48649,3.514644 0.50396,1.282539 1.04313,2.816797 1.19819,3.409477 0.37427,1.430614 0.40532,1.470241 0.7571,0.965917 l 0.30266,-0.433906 0.66779,0.414599 z m -3.11163,-7.006915 c 0.0704,-0.401335 0.36512,-0.392597 0.43626,0.01282 0.0326,0.186052 -0.053,0.305316 -0.21925,0.305316 -0.17067,0 -0.25192,-0.119186 -0.21701,-0.31825 z m 10.57282,7.046948 c 0,-0.100068 -0.0746,-0.181849 -0.16571,-0.181849 -0.0911,0 -0.16569,0.08179 -0.16569,0.181849 0,0.100069 0.0745,0.181863 0.16569,0.181863 0.0911,0 0.16571,-0.08179 0.16571,-0.181863 z m 7.62186,-0.358395 c 0.85024,-0.01568 2.40256,-0.842145 2.40256,-1.279036 0,-0.198447 -0.22604,-0.286583 -0.83529,-0.325725 -0.79938,-0.05137 -1.12561,0.05043 -4.85836,1.515151 -0.16886,0.06625 -0.17936,0.149988 -0.0416,0.33207 0.15297,0.202296 0.38726,0.203549 1.38562,0.0072 0.66085,-0.129839 1.53706,-0.242274 1.94714,-0.24988 z m -3.0909,-1.679601 c 0.48331,-0.371074 3.02822,-2.577135 4.72409,-4.095102 0.80658,-0.721963 1.23542,-1.60438 1.00718,-2.07245 -0.52818,-1.083193 -3.78951,-0.09276 -5.54593,1.684125 -0.79731,0.806641 -1.56815,2.320454 -1.56815,3.079637 0,0.622436 0.44607,1.805076 0.68084,1.805076 0.0986,0 0.41452,-0.180579 0.70197,-0.401286 z m 4.37354,-0.796797 c 1.0606,-0.174479 1.86552,-1.025307 1.86552,-1.971929 0,-0.796565 -0.25777,-0.947039 -1.01624,-0.593233 -0.61833,0.288452 -3.95454,3.161431 -3.95454,3.405459 0,0.08484 0.52126,-0.04035 1.15836,-0.278161 0.63712,-0.237827 1.51322,-0.490789 1.9469,-0.562136 z m -19.60095,-0.05847 c 0.0512,-0.09093 -0.0727,-0.56155 -0.27559,-1.045679 l -0.36874,-0.880254 -0.0565,0.793692 c -0.031,0.436538 -0.0168,0.907088 0.0316,1.045685 0.0992,0.283613 0.52708,0.338954 0.66919,0.08657 z m 1.12002,-6.064082 1.11074,0.0154 0.26537,-1.001846 c 0.40379,-1.52453 0.20425,-1.787775 -0.35089,-0.462899 -0.49699,1.186057 -0.92409,1.43912 -1.03135,0.611105 l -0.0552,-0.426203 -0.24415,0.382588 c -0.46449,0.727831 -0.74958,0.484904 -0.92311,-0.786542 -0.0937,-0.686925 -0.3801,-0.362328 -0.42975,0.487174 -0.0354,0.606473 -0.12184,0.863815 -0.28997,0.863815 -0.13171,0 -0.23945,0.06821 -0.23945,0.151548 0,0.306393 0.25506,0.416467 0.66073,0.285109 0.22895,-0.07409 0.9161,-0.127817 1.52703,-0.119319 z"
           id="path2987"
           inkscape:connector-curvature="0"
           inkscape:transform-center-y="-223.46052"
           inkscape:transform-center-x="-3.2535547" />
        <path
           inkscape:transform-center-x="164.39153"
           inkscape:transform-center-y="-161.25642"
           inkscape:connector-curvature="0"
           id="path3954"
           d="m 35.531708,-28.192473 c -0.259778,-0.07822 -0.332702,-0.02206 -0.413461,0.318325 -0.109831,0.463106 -0.586224,0.604691 -0.928931,0.276374 -0.103757,-0.0994 -0.204558,-0.08684 -0.223999,0.02788 -0.0194,0.114774 -0.204147,0.309296 -0.410199,0.432515 -0.307385,0.183402 -0.419078,0.156706 -0.619706,-0.148182 -0.198553,-0.301696 -0.301499,-0.328584 -0.544846,-0.142758 -0.238192,0.18182 -0.404331,0.143498 -0.805381,-0.185968 -0.61863,-0.508179 -0.639491,-0.934033 -0.08408,-1.715233 0.490285,-0.689635 0.307498,-1.026925 -0.605847,-1.11785 -0.602378,-0.05997 -0.740153,0.01417 -1.834664,0.987294 -0.728988,0.648116 -1.471432,1.158415 -1.933563,1.328951 -1.487844,0.549039 -3.581166,0.0533 -6.311342,-1.49462 -1.821167,-1.032543 -1.931565,-1.057112 -2.279228,-0.507133 -0.177426,0.280651 -0.435994,0.475355 -0.670629,0.505051 -0.530944,0.06717 -1.510162,-0.578289 -2.335311,-1.539389 l -0.696278,-0.810982 -0.454834,0.566764 c -0.365621,0.455571 -0.506701,0.532379 -0.720606,0.39023 -0.30495,-0.202546 -0.381627,-1.045559 -0.174401,-1.917946 l 0.14238,-0.599474 -0.952923,-0.15014 c -1.958298,-0.308555 -2.7421402,-0.933089 -1.900062,-1.513869 0.425096,-0.293179 0.44445,-0.371632 0.211358,-0.859122 -0.384545,-0.804304 -0.212593,-1.267584 0.472033,-1.271775 l 0.55495,-0.0034 -0.299006,-0.76699 c -0.329702,-0.845712 -0.181162,-1.181041 0.43557,-0.983306 l 0.403433,0.129356 -0.02035,-0.553029 c -0.05511,-1.499233 1.082905,-0.809666 2.643156,1.601557 1.117373,1.726786 1.387799,2.028717 2.045972,2.284349 0.863258,0.335323 1.481903,-0.04526 4.041331,-2.48618 2.364344,-2.25486 3.119008,-2.784334 4.204692,-2.950019 0.248505,-0.03793 0.488916,-0.107665 0.534242,-0.154977 0.04538,-0.04737 -0.109838,-0.604946 -0.344788,-1.239209 -0.743146,-2.006131 -0.457591,-4.589326 0.723452,-6.544601 0.666182,-1.102882 1.519232,-1.630733 2.333277,-1.443775 0.496394,0.114009 0.561695,0.175571 0.941838,0.887887 0.402187,0.753597 0.416239,0.764636 0.912355,0.717545 0.904104,-0.08584 1.84236,0.878023 2.077422,2.134131 0.0919,0.491046 0.182101,0.618933 0.491465,0.696821 0.898948,0.226321 1.074817,0.916405 0.644532,2.529725 -0.134031,0.5026 -0.178431,1.210205 -0.09865,1.572428 0.07975,0.362262 0.05501,1.366634 -0.05504,2.231966 -0.367908,2.893191 -0.123554,4.777351 0.790962,6.098636 0.643109,0.929162 0.923071,1.652234 1.124319,2.903839 0.08957,0.557116 0.268329,1.287342 0.397194,1.622718 0.25449,0.662219 0.09082,1.005775 -0.407665,0.855712 z m -0.740743,-2.825676 c -0.182994,-0.904913 -0.602035,-1.790471 -1.139208,-2.407331 -0.46961,-0.539213 -0.718858,-0.472984 -1.219282,0.324109 l -0.283374,0.451356 1.281619,1.291229 c 0.771813,0.777765 1.326023,1.244863 1.393431,1.174502 0.0615,-0.0642 0.04659,-0.439453 -0.03319,-0.833865 z m -2.355755,-0.05675 c 0.02372,-0.150627 -0.138655,-0.405314 -0.375831,-0.58949 -0.339129,-0.26354 -0.487738,-0.267259 -0.791799,-0.02026 -0.319411,0.259473 -0.326182,0.324333 -0.0462,0.442528 0.180511,0.07613 0.48623,0.239628 0.679508,0.363192 0.381022,0.243573 0.47031,0.210832 0.534319,-0.195965 z m 0.361058,-3.823345 c 0.06932,-0.2491 0.05383,-0.920004 -0.0344,-1.490886 -0.153092,-0.990391 -0.19439,-1.063455 -0.900634,-1.593347 -0.985962,-0.739716 -4.174861,-2.202604 -5.130372,-2.353506 -1.046846,-0.165324 -2.38358,0.337899 -3.346134,1.259692 -0.735465,0.70427 -0.754127,0.746258 -0.436845,0.981474 0.405303,0.300486 0.186185,1.028452 -0.428134,1.422459 -0.493074,0.316255 -0.347324,0.50103 0.512506,0.649688 0.37552,0.06492 0.68321,0.224543 0.772974,0.401037 0.125618,0.247057 0.03692,0.383659 -0.563529,0.867783 -0.413081,0.33305 -0.661294,0.623784 -0.590412,0.69169 0.06721,0.06438 0.530891,0.09557 1.03035,0.06924 0.845564,-0.04455 0.955621,-0.0023 1.597918,0.613006 1.231166,1.179469 2.345888,1.348013 3.501033,0.529379 1.548114,-1.097113 2.326303,-3.895615 1.344741,-4.83596 -0.202508,-0.194005 -0.424713,-0.293738 -0.493787,-0.221636 -0.169556,0.176988 -0.363033,1.229296 -0.25214,1.371386 0.04891,0.06236 0.134918,0.183676 0.191299,0.269403 0.05641,0.08576 0.155339,0.219027 0.219747,0.29638 0.199788,0.240422 -0.151543,0.447227 -0.577544,0.33997 -0.22319,-0.0562 -0.500525,-0.0033 -0.616316,0.117577 -0.243529,0.254203 -0.718993,0.223766 -1.702199,-0.108922 -0.582646,-0.197167 -0.708085,-0.295306 -0.755693,-0.591294 -0.08535,-0.530843 0.65759,-1.195782 1.55574,-1.392409 0.604479,-0.13235 0.859253,-0.287856 1.132995,-0.69162 0.487607,-0.719205 0.877721,-0.709242 1.662367,0.04246 0.522578,0.500635 0.655061,0.753161 0.743217,1.416423 0.151598,1.140752 -0.02443,1.940234 -0.683906,3.106301 -1.347313,2.382287 -3.62039,2.77625 -5.644169,0.97826 l -0.862114,-0.76609 -0.583003,0.528315 -0.583003,0.5283 0.767428,0.254816 c 1.445598,0.480001 1.333486,1.163244 -0.237329,1.446867 -0.413286,0.07465 -0.778321,0.163786 -0.811188,0.198093 -0.03293,0.03437 0.329994,0.435788 0.806383,0.892173 1.008379,0.966037 1.663466,1.210556 2.773664,1.035272 0.408331,-0.06445 1.019639,-0.307033 1.358476,-0.53906 0.940348,-0.643886 5.110999,-5.179656 5.26213,-5.722818 z m 0.138112,-5.135565 c 0.233594,-1.882558 0.02823,-2.046477 -0.850562,-0.678994 -0.918647,1.429453 -0.911731,1.529527 0.147893,2.142736 0.448273,0.259433 0.503004,0.145436 0.702662,-1.463735 z m -10.72693,8.765784 c 0.895025,-0.229684 0.82474,-0.442966 -0.107348,-0.325703 -0.842791,0.106025 -0.972378,-0.167005 -0.426748,-0.89909 0.358106,-0.480454 0.389375,-0.628256 0.166053,-0.784314 -0.474731,-0.331824 -0.415706,-0.795257 0.180694,-1.417798 0.598995,-0.625249 0.590699,-0.726479 -0.06838,-0.833226 -0.545913,-0.08841 -0.932885,-0.462626 -0.810362,-0.783259 0.201334,-0.526364 -0.13589,-0.41747 -1.026752,0.33153 -1.536094,1.291496 -2.635939,1.481212 -3.750904,0.646992 -0.752574,-0.563088 -1.04647,-0.542041 -1.7406,0.124665 -0.432334,0.415131 -0.533837,0.627084 -0.459862,0.95955 0.196372,0.882443 0.509906,1.109332 2.874488,2.080076 1.274758,0.523328 2.755642,1.195365 3.290888,1.493402 1.291967,0.719413 1.342061,0.724405 1.221242,0.1215 l -0.10395,-0.518721 0.76135,-0.195402 z m -7.212302,-2.600347 c -0.241104,-0.328473 -0.03091,-0.535247 0.311055,-0.306156 0.156901,0.105167 0.183805,0.249484 0.0688,0.369534 -0.118066,0.123241 -0.260338,0.09946 -0.379933,-0.06346 z m 12.402739,-2.75972 c -0.07226,-0.06923 -0.182921,-0.07193 -0.245949,-0.0061 -0.06302,0.06578 -0.05556,0.176226 0.01669,0.245446 0.07226,0.06923 0.182862,0.07201 0.245946,0.0062 0.06302,-0.06578 0.05557,-0.176241 -0.01669,-0.24547 z m 5.01388,-5.751713 c 0.576859,-0.62481 1.053935,-2.317483 0.738454,-2.619717 -0.1433,-0.137282 -0.363314,-0.03503 -0.813048,0.377836 -0.590093,0.541699 -0.742263,0.847695 -2.266836,4.556402 -0.06897,0.167765 -0.01577,0.233276 0.211011,0.25976 0.251901,0.02949 0.414884,-0.138831 0.963748,-0.995582 0.363408,-0.567024 0.888366,-1.27752 1.16656,-1.578902 z m -3.351082,1.070033 c 0.06639,-0.605704 0.233911,-3.969512 0.310955,-6.244213 0.03665,-1.081878 -0.303887,-2.001987 -0.799775,-2.160977 -1.147565,-0.367934 -2.688504,2.672254 -2.620469,5.169793 0.03091,1.133763 0.59079,2.737621 1.139,3.262811 0.449464,0.430591 1.612038,0.926613 1.774448,0.757085 0.06821,-0.0712 0.156361,-0.424249 0.195841,-0.784499 z m 2.450172,-3.709366 c 0.607714,-0.886566 0.550158,-2.056391 -0.133403,-2.711249 -0.575203,-0.551051 -0.862182,-0.469009 -1.131394,0.323443 -0.219458,0.646045 -0.452802,5.042619 -0.276588,5.211433 0.06126,0.05869 0.331462,-0.404318 0.600473,-1.028884 0.269013,-0.624593 0.69242,-1.432224 0.940912,-1.794743 z m -13.601838,14.113492 c -0.03024,-0.09988 -0.455791,-0.335974 -0.945739,-0.524379 l -0.890724,-0.342676 0.534043,0.589862 c 0.293781,0.324375 0.643391,0.63964 0.776955,0.700569 0.273423,0.124566 0.609385,-0.146124 0.525447,-0.423338 z m -3.604092,-5.003805 0.779513,-0.791417 -0.53986,-0.884686 c -0.821535,-1.346224 -1.149664,-1.384243 -0.577001,-0.06685 0.512648,1.179373 0.399925,1.662849 -0.272189,1.167495 l -0.34595,-0.25498 0.10737,0.44097 c 0.204243,0.838912 -0.168396,0.876724 -1.206559,0.122465 -0.560852,-0.407542 -0.524585,0.02382 0.0545,0.647343 0.413448,0.445111 0.539478,0.685555 0.423169,0.806962 -0.09112,0.09511 -0.116393,0.220095 -0.05621,0.277747 0.221248,0.211957 0.47718,0.103925 0.662961,-0.279883 0.104883,-0.21658 0.541446,-0.749942 0.970214,-1.185218 z"
           style="fill:#000128;fill-opacity:0" />
        <path
           style="fill:#000128;fill-opacity:0"
           d="m 1.5713696,52.193997 c -0.2408963,0.124788 -0.2541157,0.215876 -0.075012,0.516385 0.2437087,0.408823 4.468e-4,0.842206 -0.474138,0.845275 -0.14368371,9.29e-4 -0.20727284,0.08014 -0.14132851,0.176009 0.0660114,0.09587 0.0689067,0.364131 0.006855,0.596058 -0.092856,0.345687 -0.19160085,0.404317 -0.54791062,0.32525 -0.35259768,-0.07822 -0.44519922,-0.02582 -0.4904124,0.277006 -0.0443038,0.296363 -0.19021673,0.384569 -0.70746959,0.427445 -0.79785438,0.06616 -1.10940598,-0.22491 -1.25489248,-1.172321 -0.1284524,-0.836347 -0.4945252,-0.951092 -1.2132799,-0.380252 -0.4740414,0.376484 -0.521277,0.52564 -0.6289938,1.98623 -0.07176,0.972794 -0.2491575,1.85606 -0.4620221,2.300285 -0.6853283,1.430192 -2.5327815,2.532313 -5.5700312,3.322902 -2.026002,0.527363 -2.122336,0.586617 -1.988798,1.223417 0.06813,0.324966 0.01818,0.644766 -0.129516,0.829485 -0.334234,0.417973 -1.48646,0.636747 -2.747947,0.521712 l -1.06446,-0.09706 0.06832,0.723483 c 0.0549,0.581557 0.0072,0.73493 -0.245347,0.781893 -0.359897,0.06703 -1.002029,-0.48453 -1.460885,-1.254889 l -0.315323,-0.529351 -0.788396,0.55591 c -1.620196,1.142412 -2.617643,1.240134 -2.417832,0.236901 0.100874,-0.506443 0.06012,-0.576221 -0.446653,-0.763717 -0.836104,-0.309369 -1.035355,-0.761581 -0.546975,-1.241389 l 0.395873,-0.388928 -0.748733,-0.342165 c -0.825587,-0.377279 -0.952528,-0.721366 -0.372241,-1.008984 l 0.379598,-0.188139 -0.399754,-0.382689 c -1.083672,-1.037493 0.213227,-1.335207 3.012158,-0.691495 2.004445,0.460987 2.408784,0.489322 3.059132,0.21439 0.853019,-0.360573 1.031916,-1.064534 1.16865,-4.598663 0.126318,-3.264745 0.29913,-4.170281 0.962845,-5.045292 0.151915,-0.200288 0.275872,-0.417763 0.275449,-0.483281 -4.25e-4,-0.0656 -0.50013,-0.357624 -1.110459,-0.649153 -1.930442,-0.922075 -3.524561,-2.974689 -4.038756,-5.20035 -0.290027,-1.2554 -0.04548,-2.228292 0.668895,-2.661061 0.435621,-0.263893 0.525356,-0.265194 1.294238,-0.01877 0.81345,0.260695 0.831222,0.25883 1.154446,-0.120478 0.589018,-0.691253 1.933597,-0.653008 2.977084,0.08469 0.407932,0.288379 0.561727,0.317333 0.837976,0.157774 0.802718,-0.463651 1.409526,-0.09092 2.224326,1.366494 0.253848,0.454018 0.7147895,0.992728 1.0243078,1.197103 0.3095233,0.204424 0.9912535,0.942407 1.5149309,1.640026 1.7509147,2.332425 3.2384697,3.514351 4.8149355,3.825621 1.10861,0.218895 1.8130908,0.542807 2.8291762,1.300821 0.45227422,0.337416 1.08911247,0.736943 1.415157,0.887867 0.6438213,0.297982 0.765635,0.65851 0.3034045,0.897987 z M -0.92811063,50.682129 C -1.6896468,50.160194 -2.6070945,49.81654 -3.4221839,49.747979 c -0.7125286,-0.05989 -0.8452684,0.16122 -0.6492539,1.081742 l 0.1109883,0.521253 1.8189725,0.03404 c 1.0955313,0.02061 1.81854647,-0.03016 1.81791737,-0.127599 -5.7801e-4,-0.0889 -0.27261853,-0.347805 -0.60455387,-0.57528 z m -1.73005017,1.599916 c -0.087881,-0.124612 -0.3817775,-0.194295 -0.6802462,-0.161284 -0.4269039,0.04706 -0.5361381,0.14789 -0.5823174,0.5369 -0.048507,0.408653 -0.0082,0.459913 0.27504,0.349741 0.1825575,-0.07108 0.5158127,-0.166669 0.7405668,-0.212603 0.4430612,-0.09057 0.4843336,-0.176246 0.2469582,-0.512749 z m -2.403626,-2.995148 c -0.1237379,-0.227036 -0.6020975,-0.697699 -1.0629973,-1.045926 -0.7996083,-0.604102 -0.880129,-0.627772 -1.7559784,-0.516175 -1.2227092,0.155831 -4.5299265,1.326913 -5.3207105,1.884079 -0.866371,0.610425 -1.475168,1.9025 -1.52394,3.234353 -0.0373,1.017602 -0.02145,1.06073 0.37005,1.008557 0.500122,-0.06663 0.849864,0.608367 0.68342,1.318949 -0.133585,0.570346 0.09969,0.601437 0.820251,0.109297 0.314692,-0.214939 0.646663,-0.314678 0.833996,-0.250539 0.262206,0.08981 0.29369,0.249608 0.199961,1.015199 -0.06448,0.526688 -0.04013,0.908188 0.05803,0.907554 0.09307,-6.08e-4 0.447534,-0.301151 0.787617,-0.667889 0.575764,-0.620853 0.684167,-0.667182 1.5736126,-0.67295 1.7049326,-0.01103 2.6222555,-0.666412 2.8810772,-2.058365 0.3468788,-1.865473 -1.0436667,-4.415684 -2.4029442,-4.406892 -0.2804356,0.0018 -0.5093514,0.085 -0.5087054,0.184843 0.00159,0.245095 0.5956116,1.134993 0.7741472,1.159729 0.078529,0.01069 0.2247385,0.03785 0.324902,0.0601 0.1002073,0.02226 0.2640127,0.04899 0.3641046,0.05965 0.3108103,0.03339 0.2027167,0.426478 -0.1776864,0.646192 -0.1993046,0.115108 -0.3614829,0.346217 -0.3603929,0.513602 0.00228,0.352023 -0.3601214,0.661313 -1.2973826,1.107314 -0.5554311,0.264287 -0.7137961,0.281221 -0.9540971,0.101972 -0.430949,-0.321501 -0.360893,-1.316084 0.146695,-2.082693 0.34161,-0.51596 0.41614,-0.804988 0.331384,-1.28538 -0.150968,-0.855701 0.135923,-1.120242 1.2225119,-1.127267 0.7236721,-0.0047 0.994613,0.08427 1.5197967,0.498842 0.9032535,0.713043 1.3337235,1.409357 1.6725677,2.70543 0.6922647,2.647888 -0.6645603,4.513662 -3.3690468,4.632835 l -1.1522015,0.05065 -0.05043,0.785154 -0.05044,0.785142 0.7281827,-0.351607 c 1.3716755,-0.662314 1.7670593,-0.09393 0.8373437,1.20358 -0.2445914,0.341399 -0.4444686,0.659589 -0.4441617,0.707098 3.055e-4,0.0476 0.5403087,0.08291 1.2000174,0.07864 1.3964148,-0.009 2.0368082,-0.289789 2.7114293,-1.18876 0.2481393,-0.330628 0.5178794,-0.930449 0.5994415,-1.332934 0.2263813,-1.116958 0.060419,-7.276503 -0.2094062,-7.771539 z m -3.477497,-3.78155 c -1.1434562,-1.513638 -1.4049883,-1.488245 -1.0832547,0.105108 0.3362913,1.66558 0.4109497,1.732578 1.5984155,1.434663 0.5023671,-0.126022 0.462251,-0.245945 -0.5151609,-1.539761 z m -1.5929802,13.761119 c 0.4823229,-0.788155 0.2833473,-0.89226 -0.303867,-0.158968 -0.530961,0.663038 -0.814103,0.557357 -0.932403,-0.347997 -0.07762,-0.594181 -0.15812,-0.722023 -0.427065,-0.678482 -0.571769,0.0925 -0.852165,-0.281175 -0.857741,-1.143277 -0.0056,-0.865852 -0.08205,-0.932719 -0.629361,-0.550314 -0.453328,0.316751 -0.991644,0.31771 -1.127021,0.0023 -0.2221,-0.517944 -0.38826,-0.204944 -0.505923,0.952981 -0.202877,1.996594 -0.860018,2.898713 -2.241118,3.076568 -0.932216,0.120042 -1.128462,0.339826 -1.162261,1.301684 -0.02114,0.598999 0.05364,0.82179 0.338264,1.008854 0.755488,0.496494 1.138499,0.440956 3.511425,-0.50921 1.279252,-0.512243 2.809991,-1.061324 3.401657,-1.220214 1.4281631,-0.383514 1.467588,-0.414819 0.961,-0.763331 l -0.435854,-0.299847 0.410271,-0.670458 z m -6.986646,3.156879 c -0.401782,-0.0678 -0.394949,-0.362575 0.01,-0.436333 0.185837,-0.0338 0.305652,0.05103 0.30673,0.217268 0.0011,0.170666 -0.117555,0.252684 -0.316842,0.219061 z m 6.978425,-10.618171 c -0.100069,6.44e-4 -0.181361,0.07578 -0.180745,0.166911 5.88e-4,0.09109 0.08286,0.165157 0.182915,0.164512 0.10007,-6.44e-4 0.1813757,-0.07568 0.1808131,-0.166837 -5.876e-4,-0.09109 -0.082863,-0.165174 -0.1829321,-0.16453 z m -0.407678,-7.619383 c -0.02118,-0.850121 -0.857665,-2.397064 -1.294547,-2.394239 -0.198442,0.0013 -0.285116,0.227888 -0.320316,0.83738 -0.0462,0.799695 0.05771,1.12526 1.546539,4.848459 0.06734,0.168425 0.151146,0.178386 0.332332,0.03945 0.201306,-0.154271 0.20104,-0.388569 -0.0018,-1.385637 -0.134111,-0.659997 -0.25221,-1.535462 -0.262468,-1.945483 z m -1.659576,3.101697 c -0.374194,-0.480899 -2.596666,-3.011489 -4.125568,-4.697507 -0.727162,-0.801898 -1.612336,-1.225019 -2.07892,-0.993757 -1.079755,0.535174 -0.06825,3.790031 1.719955,5.534922 0.811779,0.79208 2.330547,1.553111 3.089714,1.548201 0.622423,-0.004 1.802154,-0.457734 1.800636,-0.692498 -6.38e-4,-0.0986 -0.183257,-0.413344 -0.405817,-0.699361 z m -0.825066,-4.368295 c -0.181334,-1.05945 -1.037349,-1.858851 -1.983952,-1.852729 -0.796548,0.0052 -0.945351,0.263889 -0.586647,1.020055 0.292444,0.616452 3.186939,3.934013 3.430961,3.932434 0.08483,-5.47e-4 -0.04372,-0.520988 -0.285646,-1.156536 -0.241943,-0.635569 -0.500565,-1.510015 -0.574716,-1.943224 z m 0.06829,19.600918 c -0.09126,-0.05062 -0.561068,0.07633 -1.043875,0.282347 l -0.877851,0.374425 0.794041,0.05137 c 0.436729,0.02818 0.907178,0.01093 1.045459,-0.03836 0.282965,-0.101031 0.335538,-0.52926 0.08224,-0.669735 z m -6.071199,-1.08078 0.0082,-1.110816 -1.003542,-0.258885 c -1.52711,-0.393923 -1.789058,-0.192684 -0.460622,0.353873 1.189246,0.489309 1.445066,0.914763 0.617762,1.027376 l -0.425837,0.05795 0.384159,0.241671 c 0.730819,0.459774 0.489741,0.746428 -0.780557,0.928178 -0.686304,0.09814 -0.359861,0.382435 0.489946,0.426587 0.606689,0.03148 0.864585,0.116252 0.865672,0.284378 8.49e-4,0.131712 0.06976,0.239004 0.153097,0.238462 0.306386,-0.002 0.414809,-0.257749 0.28083,-0.66256 -0.07557,-0.228466 -0.133739,-0.915255 -0.129191,-1.526227 z"
           id="path3956"
           inkscape:connector-curvature="0"
           inkscape:transform-center-y="-1.7526225"
           inkscape:transform-center-x="223.44506" />
        <path
           inkscape:transform-center-x="165.31842"
           inkscape:transform-center-y="160.27268"
           inkscape:connector-curvature="0"
           id="path3958"
           d="m 33.399638,133.7588 c -0.08527,0.25755 -0.03112,0.33198 0.306936,0.42198 0.45994,0.12242 0.588488,0.60249 0.250952,0.93612 -0.102192,0.10101 -0.09239,0.20212 0.02176,0.22468 0.114199,0.0225 0.303616,0.2125 0.421173,0.42184 0.174955,0.31227 0.145224,0.42319 -0.165019,0.61543 -0.306995,0.19026 -0.336679,0.29243 -0.157556,0.54075 0.175259,0.24306 0.132424,0.4081 -0.207852,0.80002 -0.524853,0.60455 -0.951117,0.61379 -1.716887,0.0373 -0.676015,-0.5089 -1.018162,-0.33537 -1.133949,0.57516 -0.07637,0.60051 -0.006,0.74026 0.936919,1.86089 0.628005,0.74638 1.117877,1.50246 1.275753,1.96907 0.50828,1.50225 -0.04433,3.58129 -1.666097,6.26825 -1.0818,1.79235 -1.109369,1.90204 -0.569071,2.26456 0.275708,0.18501 0.463294,0.44879 0.486584,0.68415 0.05267,0.53258 -0.619238,1.49384 -1.602472,2.29248 l -0.829661,0.67391 0.554155,0.47012 c 0.445434,0.3779 0.518404,0.52099 0.370443,0.73097 -0.210782,0.29932 -1.055572,0.35299 -1.921987,0.12206 l -0.59537,-0.15867 -0.176059,0.94848 c -0.361818,1.94916 -1.007486,2.71569 -1.565097,1.85809 -0.281483,-0.43293 -0.359383,-0.45441 -0.853042,-0.23469 -0.814487,0.36247 -1.272908,0.17796 -1.258436,-0.50653 l 0.01173,-0.55483 -0.774855,0.27798 c -0.854385,0.30653 -1.185541,0.14891 -0.971068,-0.46221 l 0.140304,-0.39975 -0.553378,0.005 c -1.500178,0.0142 -0.779847,-1.10457 1.673008,-2.59852 1.756601,-1.06988 2.065791,-1.33198 2.339269,-1.98294 0.358728,-0.8538 -0.0049,-1.48259 -2.3751,-4.1076 -2.189576,-2.42493 -2.698283,-3.19374 -2.834313,-4.28354 -0.03114,-0.24944 -0.0943,-0.49167 -0.140357,-0.53827 -0.04612,-0.0466 -0.607715,0.0933 -1.248147,0.31089 -2.025642,0.68818 -4.600094,0.33232 -6.52245,-0.90158 -1.084313,-0.69599 -1.588715,-1.56312 -1.379639,-2.37176 0.127498,-0.4931 0.190816,-0.5567 0.913231,-0.91729 0.764279,-0.38149 0.775697,-0.39524 0.742146,-0.89245 -0.06116,-0.90611 0.927916,-1.81775 2.189965,-2.01848 0.493368,-0.0785 0.623666,-0.16517 0.709958,-0.47229 0.25074,-0.89245 0.94536,-1.04944 2.546354,-0.57534 0.49876,0.14768 1.204891,0.21135 1.569155,0.14147 0.364301,-0.0698 1.367625,-0.0177 2.229636,0.11586 2.882087,0.44663 4.772208,0.25373 6.117929,-0.62443 0.946347,-0.61755 1.676782,-0.87769 2.933407,-1.04475 0.559351,-0.0744 1.294178,-0.23314 1.632941,-0.35282 0.66891,-0.23634 1.007878,-0.0634 0.844283,0.43084 z m -2.844818,0.66345 c -0.909564,0.15826 -1.806215,0.55301 -2.437488,1.07316 -0.551811,0.45474 -0.492403,0.7057 0.290754,1.22767 l 0.443464,0.29557 1.325685,-1.24595 c 0.79851,-0.75033 1.280546,-1.29159 1.212047,-1.36089 -0.0625,-0.0632 -0.438019,-0.0586 -0.83446,0.0104 z m -0.12094,2.35333 c -0.149925,-0.0278 -0.408943,0.12756 -0.599516,0.35962 -0.272687,0.33182 -0.280454,0.48028 -0.04184,0.79096 0.250671,0.32636 0.315318,0.3349 0.441104,0.0582 0.08102,-0.17837 0.252793,-0.47952 0.38158,-0.66935 0.253866,-0.37425 0.223573,-0.46439 -0.181329,-0.53947 z m -3.812083,-0.46514 c -0.247119,-0.0761 -0.918195,-0.0789 -1.49127,-0.006 -0.994196,0.12604 -1.068359,0.16533 -1.617304,0.85687 -0.766316,0.96543 -2.315583,4.11327 -2.492473,5.06431 -0.193797,1.04196 0.272803,2.39191 1.168016,3.37923 0.683961,0.75439 0.725425,0.77419 0.969202,0.46344 0.311425,-0.39696 1.033145,-0.15809 1.41026,0.46674 0.302698,0.50152 0.491376,0.36086 0.663417,-0.4946 0.07513,-0.37361 0.243082,-0.67684 0.421957,-0.76176 0.250392,-0.11883 0.384523,-0.0265 0.852101,0.58698 0.32167,0.422 0.605524,0.67805 0.675339,0.60904 0.06619,-0.0654 0.110005,-0.52809 0.0973,-1.02808 -0.02149,-0.84646 0.02375,-0.95533 0.656333,-1.58061 1.212587,-1.19856 1.411456,-2.30828 0.624612,-3.48531 -1.054507,-1.57744 -3.830758,-2.43162 -4.797508,-1.47605 -0.199463,0.19713 -0.305203,0.41655 -0.235014,0.48756 0.172304,0.17431 1.218944,0.39641 1.364004,0.28943 0.06367,-0.0472 0.187288,-0.12986 0.274518,-0.18389 0.08727,-0.054 0.223177,-0.14931 0.302262,-0.21158 0.245778,-0.19316 0.44293,0.16367 0.324101,0.58659 -0.06226,0.22158 -0.01694,0.50025 0.100734,0.6193 0.247473,0.25036 0.204085,0.72482 -0.155279,1.69859 -0.212976,0.57706 -0.314498,0.69978 -0.611672,0.7393 -0.532974,0.0709 -1.177415,-0.68994 -1.349487,-1.59312 -0.115825,-0.60786 -0.264328,-0.86678 -0.66048,-1.15142 -0.705647,-0.50703 -0.685054,-0.89673 0.08776,-1.6606 0.51468,-0.50875 0.770737,-0.63428 1.436155,-0.70433 1.144461,-0.12045 1.938847,0.0773 3.086505,0.76832 2.344677,1.41175 2.676536,3.69472 0.824051,5.66874 l -0.789306,0.84091 0.51223,0.59719 0.512215,0.59718 0.275639,-0.7602 c 0.519227,-1.43197 1.199159,-1.30128 1.439861,0.27668 0.06336,0.41517 0.14251,0.7825 0.175908,0.81629 0.03346,0.0339 0.444623,-0.31799 0.913821,-0.78177 0.993186,-0.98165 1.255448,-1.62985 1.110491,-2.74441 -0.0533,-0.40994 -0.279126,-1.02763 -0.501831,-1.37267 -0.618015,-0.95755 -5.038418,-5.25028 -5.577259,-5.41616 z m -5.129893,-0.27804 c -1.875491,-0.28482 -2.044947,-0.084 -0.701925,0.83174 1.403881,0.95727 1.504107,0.95308 2.145971,-0.0894 0.271555,-0.44103 0.159092,-0.49885 -1.444039,-0.74229 z m 8.470137,10.96188 c -0.205202,-0.90096 -0.420321,-0.83651 -0.328508,0.0984 0.08301,0.84536 -0.193447,0.96746 -0.910388,0.40208 -0.470512,-0.37107 -0.617409,-0.40636 -0.779497,-0.18737 -0.344639,0.46551 -0.806292,0.39387 -1.412346,-0.21927 -0.608689,-0.61582 -0.710105,-0.61029 -0.83478,0.0456 -0.103257,0.5433 -0.487882,0.91993 -0.805048,0.78872 -0.520681,-0.21561 -0.42102,0.12446 0.30342,1.03541 1.249146,1.57072 1.408812,2.67533 0.54451,3.76714 -0.583391,0.73695 -0.570363,1.03131 0.07718,1.74335 0.403189,0.44349 0.612302,0.55073 0.946658,0.48585 0.887468,-0.17225 1.122819,-0.47948 2.157656,-2.81672 0.557879,-1.26002 1.270032,-2.72204 1.582548,-3.24896 0.754362,-1.27188 0.760718,-1.32182 0.154743,-1.21748 l -0.521362,0.0898 -0.174577,-0.76639 z m -2.795971,7.13874 c -0.334921,0.23206 -0.535891,0.0163 -0.297562,-0.31929 0.109406,-0.15397 0.254405,-0.17693 0.371271,-0.0587 0.119975,0.12139 0.09233,0.26295 -0.07379,0.37806 z m -2.420626,-12.47335 c -0.07117,0.0703 -0.07689,0.18089 -0.0128,0.24569 0.06404,0.0648 0.174646,0.0603 0.245809,-0.01 0.07117,-0.0703 0.07697,-0.18083 0.0129,-0.24568 -0.06404,-0.0648 -0.17466,-0.0604 -0.245834,0.01 z m -5.61291,-5.1688 c -0.608855,-0.59367 -2.287893,-1.11671 -2.598615,-0.80959 -0.141125,0.13952 -0.04492,0.36223 0.355535,0.82305 0.525412,0.60464 0.827148,0.76509 4.49292,2.39019 0.16582,0.0735 0.23276,0.0221 0.265414,-0.20385 0.03635,-0.25101 -0.127471,-0.41852 -0.96897,-0.9905 -0.556908,-0.37873 -1.252832,-0.92286 -1.546519,-1.20917 z m 0.978294,3.379 c -0.60367,-0.0829 -3.961661,-0.34202 -6.233417,-0.48104 -1.080478,-0.0661 -2.009526,0.24921 -2.181974,0.74058 -0.399077,1.13711 2.59798,2.76034 5.096444,2.76041 1.134185,0 2.752707,-0.51595 3.292645,-1.04964 0.4427,-0.43754 0.970209,-1.58618 0.805172,-1.75315 -0.06932,-0.0701 -0.41983,-0.16787 -0.77887,-0.21716 z m -3.641202,-2.55037 c -0.869672,-0.63165 -2.040632,-0.606 -2.713879,0.0595 -0.56649,0.56 -0.492335,0.84907 0.292485,1.13978 0.639823,0.23699 5.028403,0.59009 5.201957,0.41854 0.06033,-0.0596 -0.395133,-0.34236 -1.012134,-0.62829 -0.617028,-0.28594 -1.412818,-0.7312 -1.768429,-0.98949 z m 13.737492,13.98149 c -0.100669,0.0275 -0.348273,0.44646 -0.549962,0.93109 l -0.366828,0.88106 0.604203,-0.51777 c 0.332264,-0.28482 0.656937,-0.62572 0.721488,-0.75757 0.131973,-0.26992 -0.129459,-0.61314 -0.408858,-0.53679 z m -5.100185,3.46636 -0.769887,-0.80078 -0.899072,0.51554 c -1.368117,0.78454 -1.415066,1.11151 -0.08255,0.57497 1.192909,-0.48031 1.673132,-0.35445 1.159642,0.30391 l -0.264319,0.33887 0.443733,-0.0953 c 0.844168,-0.1813 0.871808,0.19223 0.08953,1.20944 -0.422678,0.54954 0.0095,0.52504 0.648588,-0.0368 0.456217,-0.40116 0.700005,-0.52059 0.818197,-0.40102 0.09259,0.0937 0.216842,0.12235 0.276111,0.0638 0.217896,-0.2154 0.116893,-0.47417 -0.261708,-0.67034 -0.213641,-0.11075 -0.734905,-0.56169 -1.158332,-1.00216 z"
           style="fill:#000128;fill-opacity:0" />
        <path
           style="fill:#000128;fill-opacity:0"
           d="m 117.35727,169.9985 c 0.12761,0.23941 0.21884,0.25156 0.51722,0.0689 0.40594,-0.24848 0.84215,-0.0103 0.85079,0.46419 0.003,0.14366 0.0826,0.20632 0.17765,0.13926 0.0951,-0.0672 0.3633,-0.0732 0.59594,-0.0139 0.34675,0.0888 0.40653,0.18684 0.33165,0.54405 -0.0741,0.3535 -0.0206,0.44547 0.28274,0.48713 0.29686,0.0408 0.38678,0.1857 0.43572,0.70241 0.0755,0.79703 -0.21188,1.11197 -1.15751,1.26857 -0.83478,0.13825 -0.94522,0.50565 -0.36598,1.21766 0.38201,0.46959 0.53172,0.51506 1.99347,0.60564 0.97357,0.0603 1.85885,0.22736 2.30555,0.435 1.43813,0.6685 2.56186,2.50289 3.38802,5.53065 0.55111,2.01968 0.61149,2.11532 1.24667,1.97431 0.32415,-0.0719 0.64451,-0.0257 0.83095,0.11978 0.42187,0.32931 0.65415,1.47889 0.55392,2.74163 l -0.0846,1.06553 0.72263,-0.0768 c 0.58087,-0.0617 0.7348,-0.0158 0.78472,0.23615 0.0712,0.35909 -0.47274,1.00765 -1.23766,1.47551 l -0.52562,0.32151 0.56513,0.78182 c 1.16134,1.60668 1.27076,2.60291 0.26525,2.41489 -0.50759,-0.0949 -0.57689,-0.0534 -0.75842,0.45558 -0.29954,0.83967 -0.74938,1.04422 -1.23489,0.5615 l -0.39354,-0.39128 -0.33336,0.75269 c -0.36756,0.82996 -0.71013,0.96094 -1.00455,0.38406 l -0.19257,-0.37736 -0.37817,0.40403 c -1.02472,1.09576 -1.33761,-0.19754 -0.72679,-3.00384 0.43744,-2.00971 0.46103,-2.41435 0.17849,-3.06143 -0.37057,-0.84873 -1.07661,-1.01932 -4.61207,-1.11461 -3.266,-0.088 -4.1735,-0.25017 -5.05624,-0.90358 -0.20205,-0.14955 -0.42097,-0.27095 -0.48648,-0.26976 -0.0656,0.001 -0.35174,0.50429 -0.63607,1.11801 -0.89937,1.94112 -2.93314,3.55921 -5.15261,4.09949 -1.25191,0.30474 -2.22761,0.0716 -2.66872,-0.63762 -0.26899,-0.4325 -0.27134,-0.52221 -0.034,-1.29394 0.25113,-0.81644 0.24906,-0.8342 -0.13401,-1.15294 -0.69812,-0.58087 -0.67566,-1.92581 0.0498,-2.97788 0.28356,-0.4113 0.31071,-0.56541 0.14793,-0.83977 -0.47304,-0.79722 -0.10745,-1.40836 1.3403,-2.24021 0.451,-0.25915 0.98427,-0.72639 1.185,-1.03828 0.20081,-0.31187 0.93073,-1.00222 1.62213,-1.53407 2.31172,-1.77816 3.47612,-3.27948 3.76887,-4.85949 0.20586,-1.11111 0.52149,-1.81934 1.26753,-2.84425 0.33205,-0.45623 0.72411,-1.09768 0.8712,-1.42548 0.29041,-0.64727 0.64946,-0.77333 0.89436,-0.31392 z m -1.48244,2.51705 c -0.51296,0.7676 -0.84582,1.68902 -0.90482,2.50485 -0.0515,0.71319 0.17113,0.84332 1.08929,0.63653 l 0.51991,-0.1171 0.0127,-1.81925 c 0.008,-1.0957 -0.0515,-1.81807 -0.14891,-1.81629 -0.0889,0.002 -0.34462,0.27665 -0.56818,0.61123 z m 1.62011,1.71115 c -0.12356,0.0893 -0.1898,0.38404 -0.1533,0.68209 0.0521,0.42633 0.15418,0.53437 0.5437,0.57599 0.40919,0.0437 0.45998,0.003 0.34646,-0.27916 -0.0732,-0.18171 -0.17271,-0.51382 -0.22127,-0.73802 -0.0958,-0.44197 -0.18192,-0.48223 -0.51562,-0.24092 z m -2.96674,2.43861 c -0.22558,0.12638 -0.6906,0.61023 -1.0332,1.07537 -0.59468,0.80664 -0.6174,0.88743 -0.49553,1.76191 0.17016,1.2208 1.37997,4.51405 1.94637,5.29823 0.62056,0.85916 1.91969,1.45275 3.25202,1.48589 1.01797,0.0254 1.06091,0.009 1.00415,-0.38185 -0.0725,-0.49931 0.59835,-0.85695 1.31083,-0.69886 0.57188,0.12689 0.60023,-0.10673 0.0997,-0.82147 -0.21862,-0.31215 -0.32225,-0.64293 -0.26031,-0.831 0.0867,-0.26324 0.24611,-0.29664 1.01279,-0.21186 0.5274,0.0583 0.90859,0.0295 0.9068,-0.0687 -0.002,-0.093 -0.30638,-0.44397 -0.67708,-0.77972 -0.62757,-0.56844 -0.67517,-0.6763 -0.69137,-1.56561 -0.031,-1.70468 -0.69714,-2.61426 -2.09203,-2.85673 -1.86941,-0.32496 -4.40313,1.09541 -4.37839,2.45449 0.005,0.2804 0.091,0.50832 0.1908,0.5065 0.24506,-0.004 1.12793,-0.60888 1.15057,-0.7877 0.01,-0.0787 0.0352,-0.22516 0.0563,-0.32559 0.0211,-0.10042 0.0459,-0.26456 0.0554,-0.36477 0.0297,-0.31118 0.42407,-0.20771 0.64823,0.17009 0.11745,0.19794 0.35044,0.35739 0.5178,0.35434 0.35197,-0.006 0.66549,0.35234 1.12246,1.2843 0.27079,0.55229 0.28958,0.71045 0.11316,0.95284 -0.31638,0.43472 -1.31176,0.37631 -2.08427,-0.12225 -0.51993,-0.33553 -0.80982,-0.40667 -1.28918,-0.31628 -0.85387,0.161 -1.12176,-0.12277 -1.14154,-1.20921 -0.0132,-0.72356 0.0726,-0.99553 0.48098,-1.52554 0.7024,-0.91156 1.39361,-1.35017 2.68562,-1.7042 2.63958,-0.72328 4.52115,0.61155 4.67205,3.31446 l 0.0642,1.15152 0.7857,0.0412 0.78568,0.0412 -0.36013,-0.72401 c -0.67836,-1.3638 -0.11466,-1.76583 1.19367,-0.8514 0.34425,0.24056 0.66476,0.4367 0.71226,0.43583 0.0476,-8.3e-4 0.0766,-0.54124 0.0645,-1.20086 -0.0254,-1.39621 -0.31366,-2.03327 -1.22049,-2.69729 -0.33352,-0.24424 -0.93646,-0.50693 -1.33988,-0.58376 -1.11953,-0.21326 -7.2767,0.025 -7.76854,0.30058 z m -3.74048,3.52163 c -1.50012,1.16114 -1.47166,1.42235 0.11781,1.08195 1.66152,-0.35581 1.72763,-0.43126 1.41583,-1.61512 -0.1319,-0.50085 -0.25135,-0.45933 -1.5336,0.5332 z m 13.77886,1.4314 c -0.79376,-0.47305 -0.89552,-0.27286 -0.15541,0.30569 0.66921,0.52314 0.56687,0.8075 -0.33704,0.93642 -0.59322,0.0846 -0.72012,0.16658 -0.67342,0.435 0.0992,0.57064 -0.27116,0.8554 -1.13313,0.8711 -0.86573,0.0157 -0.9317,0.093 -0.54292,0.63574 0.32204,0.44958 0.32932,0.98785 0.0155,1.12692 -0.5153,0.22816 -0.20037,0.39064 0.95885,0.49471 1.99884,0.17943 2.90861,0.82594 3.10265,2.20486 0.13098,0.93074 0.35305,1.1244 1.31524,1.1469 0.5992,0.0141 0.8211,-0.0633 1.00482,-0.35008 0.48759,-0.76126 0.42756,-1.14359 -0.55038,-3.5052 -0.52722,-1.27316 -1.09423,-2.79735 -1.26005,-3.38711 -0.40024,-1.42357 -0.43201,-1.46262 -0.77455,-0.95198 l -0.29469,0.43936 -0.67523,-0.40237 z m 3.23864,6.94912 c -0.0631,0.40255 -0.35792,0.39917 -0.43642,-0.005 -0.036,-0.18543 0.0474,-0.30623 0.21365,-0.30926 0.17065,-0.003 0.25405,0.11458 0.22277,0.31425 z m -10.69932,-6.85335 c 0.002,0.10002 0.0779,0.18046 0.16902,0.17877 0.0911,-0.002 0.16414,-0.0848 0.16235,-0.18483 -0.002,-0.10002 -0.0778,-0.18048 -0.16894,-0.17884 -0.0911,0.002 -0.16423,0.0848 -0.16237,0.18485 z m -7.61408,0.49705 c -0.84981,0.0312 -2.38683,0.88574 -2.37888,1.32255 0.004,0.19842 0.23122,0.28243 0.84108,0.31047 0.80018,0.0368 1.1245,-0.0709 4.82998,-1.60332 0.16761,-0.0693 0.17658,-0.15325 0.0356,-0.33277 -0.15663,-0.19949 -0.39091,-0.19647 -1.38552,0.0181 -0.65838,0.14184 -1.5324,0.27021 -1.94228,0.28527 z m 3.12096,1.62307 c -0.4765,0.37979 -2.98081,2.63182 -4.64878,4.1804 -0.79329,0.73654 -1.20601,1.6266 -0.96929,2.09044 0.54781,1.0734 3.79057,0.0238 5.51436,-1.78478 0.7825,-0.82102 1.52566,-2.34861 1.51184,-3.10767 -0.0113,-0.62233 -0.47885,-1.79666 -0.71358,-1.79238 -0.0986,0.002 -0.41116,0.18809 -0.69455,0.41399 z m -4.35832,0.87626 c -1.05724,0.19376 -1.84654,1.0591 -1.82928,2.00559 0.0145,0.79643 0.27495,0.94219 1.02686,0.57463 0.61298,-0.29965 3.89635,-3.23287 3.8919,-3.47686 -0.002,-0.0848 -0.52043,0.0498 -1.1531,0.2992 -0.63268,0.24938 -1.50403,0.51825 -1.93635,0.59747 z m 19.59877,-0.29827 c -0.0495,0.0918 0.0829,0.56013 0.29458,1.04048 l 0.3847,0.87341 0.042,-0.7946 c 0.0231,-0.43702 2.8e-4,-0.90724 -0.0506,-1.04494 -0.10434,-0.28175 -0.53316,-0.3293 -0.67065,-0.0744 z m -1.00947,6.08346 -1.11083,0.005 -0.24709,1.0065 c -0.37598,1.53163 -0.17168,1.7912 0.35926,0.45644 0.47532,-1.1949 0.89774,-1.4557 1.02005,-0.62977 l 0.063,0.42513 0.23715,-0.38696 c 0.45117,-0.73617 0.74063,-0.49847 0.93727,0.7696 0.10619,0.68511 0.38662,0.35536 0.42083,-0.49489 0.0244,-0.60702 0.1061,-0.86589 0.2742,-0.86895 0.1317,-0.002 0.23817,-0.0726 0.23668,-0.15586 -0.006,-0.30634 -0.2626,-0.41176 -0.66581,-0.27303 -0.22757,0.0782 -0.91363,0.14446 -1.52461,0.14709 z"
           id="path3960"
           inkscape:connector-curvature="0"
           inkscape:transform-center-y="223.39268"
           inkscape:transform-center-x="-0.97040437" />
        <path
           inkscape:transform-center-x="-163.16221"
           inkscape:transform-center-y="162.49383"
           inkscape:connector-curvature="0"
           id="path3962"
           d="m 199.14987,136.62217 c 0.25913,0.0803 0.33251,0.0248 0.41602,-0.31495 0.11365,-0.46218 0.5912,-0.59983 0.93118,-0.26873 0.10321,0.1 0.20386,0.0885 0.22423,-0.026 0.0203,-0.11467 0.20666,-0.30763 0.4137,-0.42917 0.30889,-0.18086 0.42035,-0.15325 0.61846,0.15327 0.19606,0.30334 0.29878,0.33105 0.54365,0.14723 0.23966,-0.17987 0.40551,-0.14016 0.80383,0.19259 0.61443,0.51326 0.6318,0.93926 0.07,1.71586 -0.49594,0.68558 -0.31593,1.02436 0.59664,1.12279 0.60186,0.0649 0.74024,-0.008 1.84271,-0.97218 0.73426,-0.64214 1.4809,-1.14628 1.94442,-1.31302 1.49231,-0.53679 3.58149,-0.0239 6.29884,1.54644 1.81263,1.04747 1.92283,1.07296 2.27498,0.52585 0.17976,-0.27916 0.43992,-0.47172 0.67477,-0.49952 0.53148,-0.0628 1.50536,0.59068 2.32257,1.55853 l 0.68957,0.81671 0.45948,-0.56301 c 0.36936,-0.45253 0.51104,-0.52821 0.72378,-0.3843 0.30325,0.20509 0.37303,1.04867 0.15864,1.91932 l -0.14731,0.59828 0.95166,0.15797 c 1.9557,0.32464 2.73438,0.95559 1.88756,1.52944 -0.42748,0.28969 -0.44752,0.36794 -0.21841,0.85735 0.37791,0.80743 0.20216,1.26929 -0.48248,1.26785 l -0.55495,-0.001 0.29268,0.76942 c 0.32275,0.84839 0.17147,1.18249 -0.44363,0.9797 l -0.40235,-0.13268 0.0155,0.55319 c 0.0428,1.49964 -1.08951,0.80074 -2.6299,-1.62323 -1.10314,-1.73591 -1.37107,-2.04005 -2.02712,-2.30109 -0.86048,-0.3424 -1.48223,0.0331 -4.06163,2.45289 -2.3828,2.23535 -3.14178,2.75861 -4.2288,2.91536 -0.2488,0.0359 -0.48978,0.10364 -0.5355,0.15058 -0.0459,0.0469 0.10486,0.60583 0.33461,1.242 0.72662,2.01217 0.41984,4.59293 -0.77723,6.53844 -0.67522,1.09737 -1.5326,1.61818 -2.34505,1.42455 -0.49545,-0.11809 -0.56024,-0.18019 -0.93455,-0.89558 -0.39597,-0.75687 -0.40994,-0.76803 -0.90642,-0.72501 -0.90478,0.0784 -1.83509,-0.89314 -2.05978,-2.15118 -0.0879,-0.49178 -0.17701,-0.6204 -0.48572,-0.70083 -0.89706,-0.2337 -1.06725,-0.92521 -0.62372,-2.53494 0.13815,-0.50147 0.18837,-1.2087 0.11157,-1.57156 -0.0767,-0.36291 -0.0438,-1.36704 0.0734,-2.23143 0.39167,-2.89007 0.16282,-4.77618 -0.74081,-6.10494 -0.63546,-0.93441 -0.90947,-1.65976 -1.10042,-2.91298 -0.085,-0.55783 -0.25774,-1.2895 -0.38385,-1.62593 -0.24903,-0.66429 -0.0826,-1.00649 0.41468,-0.85233 z m 0.71749,2.83167 c 0.17555,0.90638 0.58731,1.79535 1.11938,2.4166 0.46519,0.54304 0.71495,0.47888 1.22192,-0.31407 l 0.28707,-0.44901 -1.27096,-1.30173 c -0.76523,-0.78425 -1.31575,-1.25572 -1.38372,-1.18591 -0.0618,0.064 -0.0503,0.43905 0.0263,0.83411 z m 2.35521,0.0761 c -0.025,0.15039 0.13533,0.40644 0.37097,0.59256 0.33698,0.2663 0.48553,0.27126 0.79161,0.0268 0.32153,-0.25685 0.32898,-0.3215 0.0498,-0.44214 -0.17986,-0.0776 -0.48424,-0.24362 -0.67649,-0.36877 -0.37904,-0.24667 -0.46856,-0.21469 -0.53591,0.19158 z m -0.39247,3.82025 c -0.0714,0.24852 -0.0614,0.91953 0.0224,1.49112 0.14495,0.99161 0.18564,1.06501 0.88751,1.60069 0.97985,0.7478 4.15662,2.23684 5.11084,2.39559 1.04547,0.17392 2.38629,-0.3183 3.35639,-1.23215 0.74126,-0.69817 0.76023,-0.74004 0.4449,-0.97785 -0.40282,-0.30381 -0.17773,-1.02995 0.4398,-1.41889 0.49567,-0.31219 0.35144,-0.49815 -0.50712,-0.6539 -0.37498,-0.068 -0.68135,-0.23015 -0.76965,-0.40737 -0.1236,-0.24807 -0.0338,-0.38396 0.57064,-0.86313 0.4158,-0.32964 0.66642,-0.6183 0.59606,-0.68683 -0.0669,-0.0647 -0.53009,-0.0999 -1.02974,-0.0777 -0.84591,0.0376 -0.95562,-0.006 -1.59283,-0.62612 -1.22141,-1.18956 -2.33474,-1.36725 -3.49657,-0.55814 -1.55707,1.08436 -2.35824,3.87637 -1.38444,4.82475 0.20084,0.19574 0.42231,0.29719 0.49195,0.22568 0.17133,-0.17526 0.37313,-1.22627 0.26341,-1.36927 -0.0483,-0.063 -0.13341,-0.18477 -0.18907,-0.27098 -0.0557,-0.0862 -0.15352,-0.22029 -0.21728,-0.29819 -0.19783,-0.24202 0.15521,-0.44597 0.58032,-0.33521 0.22273,0.058 0.50048,0.007 0.61726,-0.11251 0.2459,-0.2519 0.72081,-0.21785 1.70125,0.12291 0.581,0.20194 0.70564,0.30111 0.75081,0.59748 0.081,0.53152 -0.6674,1.19034 -1.56713,1.37958 -0.60555,0.12738 -0.8616,0.28078 -1.13865,0.68228 -0.4935,0.71518 -0.88352,0.70201 -1.66197,-0.0561 -0.51846,-0.50489 -0.64884,-0.75852 -0.73154,-1.42248 -0.14222,-1.14197 0.0404,-1.93997 0.70941,-3.10058 1.36685,-2.37113 3.64308,-2.74641 5.65202,-0.93184 l 0.85581,0.77312 0.58732,-0.52352 0.58731,-0.52351 -0.76532,-0.26112 c -1.44159,-0.49186 -1.32388,-1.17416 0.24922,-1.44486 0.41388,-0.0713 0.77964,-0.15738 0.81279,-0.19142 0.0332,-0.0341 -0.32638,-0.43851 -0.79907,-0.89873 -1.00039,-0.9743 -1.65346,-1.2242 -2.76505,-1.05804 -0.40885,0.0611 -1.02213,0.29864 -1.36287,0.52788 -0.9456,0.63613 -5.15336,5.1375 -5.30898,5.67938 z m -0.18031,5.13426 c -0.24906,1.88057 -0.0451,2.04617 0.84496,0.68596 0.93036,-1.42185 0.92426,-1.52198 -0.13025,-2.14388 -0.44612,-0.26311 -0.50179,-0.14956 -0.71466,1.45791 z m 10.79861,-8.67733 c -0.89689,0.22231 -0.82835,0.43617 0.10464,0.32657 0.84362,-0.0991 0.97097,0.17499 0.41934,0.90257 -0.36203,0.4775 -0.39453,0.62504 -0.17249,0.78293 0.47198,0.33571 0.40915,0.79864 -0.19233,1.41626 -0.60416,0.62027 -0.59665,0.72161 0.0615,0.83375 0.54516,0.0929 0.92905,0.47029 0.80389,0.78991 -0.20565,0.52469 0.13246,0.41857 1.02944,-0.32308 1.54666,-1.27883 2.64803,-1.4595 3.75609,-0.61614 0.74793,0.56925 1.04199,0.55062 1.74157,-0.11037 0.43572,-0.41156 0.53895,-0.62269 0.46773,-0.95574 -0.18911,-0.88402 -0.50077,-1.11348 -2.85729,-2.10362 -1.27042,-0.53379 -2.74573,-1.21797 -3.27851,-1.5204 -1.28601,-0.73001 -1.33606,-0.73541 -1.2202,-0.13154 l 0.0997,0.51956 -0.76293,0.18914 z m 7.19069,2.65953 c 0.23838,0.33046 0.0265,0.53549 -0.31365,0.30351 -0.15605,-0.10645 -0.18177,-0.25097 -0.0658,-0.37009 0.11916,-0.1222 0.26115,-0.0973 0.37941,0.0666 z m -12.425,2.6577 c 0.0718,0.0697 0.18232,0.0734 0.24589,0.008 0.0633,-0.0655 0.057,-0.17575 -0.0147,-0.24557 -0.0718,-0.0697 -0.18226,-0.0735 -0.24588,-0.008 -0.0633,0.0655 -0.057,0.17581 0.0147,0.2456 z m -5.06099,5.71031 c -0.58194,0.62008 -1.07294,2.30874 -0.75996,2.61356 0.14245,0.13818 0.36302,0.038 0.81613,-0.37114 0.59451,-0.53684 0.74921,-0.84156 2.30421,-4.53762 0.0704,-0.16717 0.0177,-0.23314 -0.20883,-0.26152 -0.25166,-0.0316 -0.41602,0.13542 -0.97184,0.98768 -0.36806,0.56402 -0.89884,1.27018 -1.17951,1.56927 z m 3.35977,-1.04246 c -0.0714,0.60514 -0.26653,3.96745 -0.36227,6.24145 -0.0455,1.08154 0.28743,2.00441 0.78199,2.16748 1.14451,0.37735 2.71039,-2.65005 2.66287,-5.14808 -0.0216,-1.13399 -0.56827,-2.74239 -1.11214,-3.27207 -0.44589,-0.43429 -1.60437,-0.93983 -1.76817,-0.77164 -0.0687,0.0708 -0.15984,0.42295 -0.20228,0.78286 z m -2.48058,3.68911 c -0.61497,0.88154 -0.56703,2.0518 0.11117,2.71225 0.57065,0.55575 0.85828,0.47609 1.134,-0.31414 0.22476,-0.64421 0.49424,-5.03872 0.31941,-5.20897 -0.0611,-0.0588 -0.33479,0.40155 -0.6089,1.02391 -0.27414,0.62236 -0.70417,1.42648 -0.95564,1.78695 z m 13.71738,-14.00122 c 0.0294,0.10006 0.453,0.33971 0.94139,0.53212 l 0.88789,0.34999 -0.52922,-0.5942 c -0.29106,-0.32681 -0.63812,-0.6449 -0.77116,-0.70695 -0.27237,-0.12681 -0.61056,0.14111 -0.52892,0.41898 z m 3.56284,5.03325 -0.78586,0.78511 0.53257,0.88909 c 0.81044,1.35293 1.13825,1.39365 0.57643,0.0716 -0.50293,-1.18354 -0.38625,-1.66607 0.28178,-1.16521 l 0.34388,0.25778 -0.10374,-0.44183 c -0.19734,-0.84057 0.1756,-0.87532 1.20752,-0.11255 0.55749,0.41214 0.52476,-0.0195 -0.0491,-0.64777 -0.40974,-0.44852 -0.53382,-0.68996 -0.41652,-0.81041 0.0922,-0.0941 0.11817,-0.21916 0.0585,-0.27728 -0.2198,-0.21347 -0.47631,-0.10784 -0.66523,0.27443 -0.1067,0.21568 -0.54761,0.74547 -0.97993,1.17721 z"
           style="fill:#000128;fill-opacity:0" />
        <path
           style="fill:#000128;fill-opacity:0"
           d="m 233.77483,56.282692 c 0.24163,-0.123332 0.25545,-0.214293 0.0781,-0.515905 -0.24115,-0.410331 0.005,-0.842193 0.47938,-0.842326 0.1437,-4.09e-4 0.20776,-0.07889 0.14245,-0.175109 -0.0655,-0.0963 -0.0667,-0.364552 -0.003,-0.596091 0.095,-0.345104 0.1941,-0.403116 0.54991,-0.321844 0.35211,0.08043 0.44502,0.02858 0.49211,-0.27396 0.0461,-0.29608 0.19261,-0.383385 0.71012,-0.42305 0.79825,-0.06121 1.10799,0.231777 1.24761,1.180056 0.12326,0.837128 0.48862,0.954137 1.2109,0.38776 0.47635,-0.37355 0.52458,-0.522335 0.64129,-1.982288 0.0777,-0.972337 0.26065,-1.854477 0.47626,-2.297383 0.69418,-1.425919 2.5484,-2.5166 5.59051,-3.288323 2.02923,-0.514811 2.12595,-0.573462 1.99634,-1.211067 -0.0661,-0.325389 -0.0141,-0.644864 0.13466,-0.828674 0.33682,-0.415892 1.49038,-0.627526 2.75112,-0.504669 l 1.06385,0.103689 -0.0638,-0.723897 c -0.0513,-0.581877 -0.003,-0.734956 0.25018,-0.780356 0.36032,-0.06475 0.99902,0.49073 1.45309,1.263915 l 0.31203,0.531297 0.79183,-0.551014 c 1.62724,-1.132353 2.62527,-1.223895 2.41926,-0.221914 -0.10399,0.505811 -0.0637,0.57584 0.44191,0.766465 0.83416,0.314547 1.03061,0.767987 0.53926,1.244759 l -0.39815,0.386577 0.74658,0.346805 c 0.82324,0.382378 0.94806,0.727239 0.366,1.011272 l -0.38077,0.185769 0.39717,0.385381 c 1.07724,1.044181 -0.22148,1.333852 -3.01638,0.672812 -2.00155,-0.473399 -2.4057,-0.504241 -3.05774,-0.233349 -0.85524,0.355291 -1.03849,1.058139 -1.19712,4.591342 -0.14655,3.263901 -0.32496,4.168347 -0.99409,5.039232 -0.15314,0.199346 -0.27846,0.416039 -0.27844,0.481565 -1.5e-4,0.06562 0.4979,0.360719 1.10642,0.656007 1.92469,0.934028 3.50605,2.996481 4.00646,5.225289 0.28224,1.257171 0.0316,2.228535 -0.68536,2.656856 -0.43726,0.261192 -0.527,0.261932 -1.29435,0.01079 -0.81181,-0.265732 -0.8296,-0.263975 -1.15516,0.113324 -0.59329,0.687587 -1.93762,0.641018 -2.97651,-0.103189 -0.40616,-0.290871 -0.55975,-0.320801 -0.83698,-0.16296 -0.80558,0.458672 -1.41006,0.08218 -2.21582,-1.380251 -0.25103,-0.455569 -0.70863,-0.997139 -1.01687,-1.203423 -0.3082,-0.206391 -0.98541,-0.948515 -1.50472,-1.649388 -1.73643,-2.343227 -3.21663,-3.534358 -4.79114,-3.85539 -1.10724,-0.225749 -1.8097,-0.55402 -2.82107,-1.318322 -0.45018,-0.3402 -1.08452,-0.743673 -1.40963,-0.896615 -0.64196,-0.301973 -0.76158,-0.663208 -0.29784,-0.899845 z m 2.49006,1.52733 c 0.75828,0.52664 1.67359,0.875962 2.48823,0.949579 0.71215,0.06428 0.84625,-0.155979 0.65596,-1.077703 l -0.10776,-0.521927 -1.81873,-0.04532 c -1.09539,-0.02764 -1.81871,0.01889 -1.81867,0.116328 4.1e-4,0.08897 0.27039,0.349554 0.60096,0.57904 z m 1.73992,-1.589173 c 0.0871,0.125158 0.38058,0.19665 0.67924,0.165499 0.42719,-0.04445 0.53704,-0.144568 0.58566,-0.533261 0.051,-0.40835 0.0112,-0.459852 -0.2729,-0.351419 -0.18298,0.06994 -0.51684,0.163464 -0.74187,0.208 -0.44362,0.08786 -0.48541,0.173241 -0.25012,0.511217 z m 2.38503,3.009986 c 0.1223,0.227821 0.59775,0.701423 1.05668,1.052316 0.79584,0.609038 0.87621,0.63321 1.75274,0.527039 1.22366,-0.148248 4.53806,-1.298822 5.33227,-1.851065 0.87015,-0.605059 1.48694,-1.893334 1.54396,-3.224861 0.0436,-1.017351 0.028,-1.060577 -0.36379,-1.010833 -0.50053,0.06353 -0.84608,-0.61362 -0.67524,-1.323148 0.13713,-0.569515 -0.096,-0.602044 -0.81955,-0.114414 -0.31602,0.212993 -0.64861,0.310672 -0.83553,0.24537 -0.26165,-0.09141 -0.29217,-0.251406 -0.19367,-1.016422 0.0677,-0.526272 0.0458,-0.907917 -0.0524,-0.907895 -0.0931,3.5e-4 -0.44938,0.298395 -0.79174,0.662995 -0.5796,0.617281 -0.6886,0.662619 -1.57775,0.663188 -1.70496,4.39e-4 -2.62634,0.650158 -2.89378,2.040475 -0.35842,1.863288 1.01629,4.422069 2.37559,4.4217 0.28045,2.6e-5 0.50987,-0.08188 0.50984,-0.181694 4e-4,-0.245091 -0.58856,-1.138665 -0.76694,-1.16451 -0.0786,-0.01141 -0.2245,-0.03923 -0.32453,-0.06213 -0.10005,-0.02287 -0.26369,-0.05063 -0.36372,-0.06193 -0.31059,-0.03527 -0.20008,-0.427726 0.18169,-0.645078 0.2,-0.113901 0.36333,-0.344267 0.36356,-0.51136 3.2e-4,-0.352023 0.36422,-0.659071 1.30423,-1.099255 0.55704,-0.260843 0.71552,-0.276802 0.95471,-0.09606 0.42895,0.324149 0.35273,1.3183 -0.1596,2.081747 -0.3448,0.513837 -0.42113,0.802397 -0.33935,1.283304 0.14567,0.856624 -0.14286,1.119383 -1.22946,1.119692 -0.72369,2.22e-4 -0.99407,-0.09044 -1.51667,-0.508255 -0.89883,-0.718631 -1.32495,-1.417612 -1.65578,-2.715742 -0.67584,-2.652127 0.69251,-4.509461 3.39769,-4.611873 l 1.15249,-0.04355 0.0553,-0.784832 0.0553,-0.784819 -0.73036,0.347093 c -1.37573,0.653798 -1.7676,0.08298 -0.82986,-1.208744 0.24667,-0.339908 0.44855,-0.656819 0.44854,-0.704334 -2e-5,-0.04759 -0.53979,-0.08629 -1.19951,-0.08601 -1.39644,3.62e-4 -2.03858,0.277153 -2.71874,1.171924 -0.25018,0.329092 -0.52364,0.927221 -0.6077,1.329203 -0.23329,1.115524 -0.10546,7.275981 0.16126,7.772684 z m 3.454,3.803023 c 1.13405,1.520691 1.3957,1.496953 1.08389,-0.0984 -0.32596,-1.667626 -0.40021,-1.735082 -1.58948,-1.444559 -0.50313,0.122901 -0.46376,0.243078 0.50562,1.542917 z m 1.67821,-13.750987 c -0.48721,0.785149 -0.28887,0.890484 0.30286,0.160864 0.53504,-0.659729 0.81753,-0.552301 0.93022,0.353773 0.074,0.594645 0.15365,0.722995 0.42286,0.681118 0.57233,-0.08895 0.8504,0.286449 0.85065,1.148558 1.8e-4,0.865878 0.0763,0.933217 0.62591,0.554216 0.45528,-0.313925 0.9936,-0.311549 1.12702,0.0047 0.21889,0.519307 0.38698,0.20734 0.51182,-0.949827 0.21524,-1.995302 0.87796,-2.893333 2.26013,-3.062617 0.93295,-0.114272 1.13055,-0.332837 1.1703,-1.294471 0.0248,-0.598846 -0.0486,-0.822101 -0.33201,-1.01093 -0.75239,-0.501162 -1.13574,-0.447999 -3.5145,0.487447 -1.28241,0.504309 -2.81652,1.043899 -3.40916,1.199118 -1.43051,0.374655 -1.47013,0.405717 -0.96571,0.757355 l 0.434,0.302532 -0.41442,0.667904 z m 7.00607,-3.113535 c 0.40136,0.07032 0.3927,0.365027 -0.0128,0.436269 -0.18605,0.03267 -0.30533,-0.05289 -0.30541,-0.21914 6e-5,-0.170681 0.11914,-0.25194 0.31822,-0.217087 z m -7.04407,10.574734 c 0.10006,-1.89e-4 0.1818,-0.07467 0.18169,-0.165875 -3.8e-4,-0.09109 -0.0818,-0.165652 -0.18191,-0.165619 -0.10007,1.89e-4 -0.18183,0.07456 -0.18168,0.165867 3.7e-4,0.09109 0.0819,0.165696 0.18193,0.165641 z m 0.36045,7.621767 c 0.016,0.850234 0.8428,2.402326 1.27969,2.402214 0.19846,-4.49e-4 0.28652,-0.226132 0.3255,-0.835381 0.0511,-0.79939 -0.0507,-1.125595 -1.51647,-4.857952 -0.0662,-0.16886 -0.15003,-0.179329 -0.33207,-0.04156 -0.2023,0.152998 -0.20345,0.387324 -0.007,1.385618 0.13002,0.66082 0.24269,1.537001 0.25041,1.947088 z m 1.67877,-3.091363 c 0.37118,0.483234 2.57795,3.027518 4.09638,4.722986 0.72221,0.806359 1.60471,1.234976 2.07272,1.006619 1.08306,-0.528481 0.0918,-3.789533 -1.68562,-5.545472 -0.80687,-0.797096 -2.32089,-1.567526 -3.08007,-1.567325 -0.62243,1.41e-4 -1.80495,0.446561 -1.80489,0.681334 2.1e-4,0.09865 0.18069,0.41447 0.40148,0.701858 z m 0.79798,4.373331 c 0.17477,1.060545 1.02582,1.865235 1.97247,1.864945 0.79656,-2.19e-4 0.94696,-0.258006 0.59294,-1.016395 -0.28861,-0.618245 -3.16249,-3.953685 -3.40652,-3.953607 -0.0848,5.28e-4 0.0405,0.521239 0.27848,1.158275 0.238,0.637057 0.4912,1.513086 0.56266,1.946754 z m 0.0532,-19.600965 c 0.0909,0.05114 0.56152,-0.07284 1.04559,-0.275879 l 0.88016,-0.368984 -0.79371,-0.05623 c -0.43654,-0.03094 -0.9071,-0.01654 -1.04569,0.03186 -0.28357,0.09926 -0.3388,0.527167 -0.0864,0.669204 z m 6.06437,1.118375 -0.0149,1.110743 1.00191,0.265097 c 1.52464,0.403378 1.78784,0.203767 0.46281,-0.351004 -1.18618,-0.496669 -1.43936,-0.92369 -0.61137,-1.031182 l 0.42619,-0.05537 -0.38265,-0.244043 c -0.72796,-0.464299 -0.48511,-0.749458 0.78629,-0.923324 0.6869,-0.09389 0.36222,-0.38019 -0.48724,-0.42967 -0.60648,-0.03528 -0.86384,-0.121606 -0.86389,-0.289735 3.6e-4,-0.131741 -0.0683,-0.239434 -0.15161,-0.239416 -0.3064,5.07e-4 -0.4164,0.255176 -0.28492,0.660805 0.0741,0.228936 0.12805,0.916081 0.11973,1.527007 z"
           id="path3964"
           inkscape:connector-curvature="0"
           inkscape:transform-center-y="3.1910268"
           inkscape:transform-center-x="-223.46015" />
        <path
           inkscape:transform-center-x="-163.72859"
           inkscape:transform-center-y="-161.9139"
           inkscape:connector-curvature="0"
           id="path3966"
           d="m 201.09429,-26.90427 c 0.0824,-0.258455 0.0275,-0.332291 -0.31153,-0.418572 -0.46122,-0.117474 -0.59478,-0.596281 -0.26101,-0.933377 0.10084,-0.102373 0.0902,-0.203116 -0.0241,-0.224438 -0.11451,-0.02124 -0.30592,-0.209185 -0.42557,-0.417393 -0.17831,-0.31037 -0.14977,-0.421599 0.15838,-0.61717 0.30495,-0.193535 0.3335,-0.296031 0.15172,-0.542409 -0.17789,-0.241129 -0.1368,-0.406655 0.19924,-0.802213 0.51832,-0.610161 0.94445,-0.624 1.71637,-0.05579 0.68145,0.501599 1.02172,0.324395 1.12769,-0.587329 0.0699,-0.601303 -0.002,-0.74028 -0.95689,-1.850695 -0.63607,-0.739521 -1.13399,-1.490333 -1.29689,-1.955218 -0.52442,-1.4967 0.006,-3.581561 1.59851,-6.285827 1.06244,-1.803897 1.08884,-1.913886 0.54466,-2.270551 -0.27768,-0.182049 -0.46803,-0.443834 -0.49392,-0.678878 -0.0584,-0.53198 0.60312,-1.500423 1.5777,-2.309594 l 0.82239,-0.68279 -0.55916,-0.464149 c -0.44948,-0.373077 -0.52423,-0.515125 -0.3783,-0.726938 0.20759,-0.301544 1.05172,-0.364338 1.92057,-0.14275 l 0.59704,0.152254 0.16584,-0.95032 c 0.34081,-1.952942 0.97818,-2.726375 1.545,-1.874838 0.28615,0.429861 0.36425,0.450525 0.85552,0.225497 0.81053,-0.371217 1.27092,-0.191649 1.26381,0.492958 l -0.006,0.554918 0.77181,-0.286297 c 0.85103,-0.31572 1.18387,-0.161682 0.976,0.451717 l -0.13601,0.401244 0.5533,-0.01092 c 1.49995,-0.03039 0.7917,1.096095 -1.64493,2.616374 -1.74498,1.088739 -2.05133,1.354143 -2.31779,2.008008 -0.34951,0.857619 0.0208,1.482459 2.4192,4.081792 2.21555,2.401217 2.73251,3.164503 2.88026,4.252779 0.0338,0.249089 0.0996,0.490624 0.14615,0.536727 0.0465,0.04629 0.60667,-0.09984 1.24472,-0.324315 2.01812,-0.70995 4.59625,-0.381819 6.53179,0.831304 1.09174,0.684282 1.6054,1.545976 1.4051,2.356758 -0.12219,0.494457 -0.18483,0.55873 -0.90329,0.927108 -0.76013,0.389694 -0.7714,0.403569 -0.73249,0.900389 0.0709,0.905395 -0.9083,1.82764 -2.16815,2.041907 -0.49249,0.08383 -0.62185,0.171873 -0.70483,0.479906 -0.24111,0.895098 -0.93401,1.059552 -2.54001,0.602722 -0.50031,-0.142293 -1.2071,-0.198364 -1.57059,-0.124569 -0.36353,0.07369 -1.36735,0.03248 -2.23074,-0.09187 -2.88673,-0.415574 -4.77467,-0.20234 -6.11086,0.690262 -0.93964,0.62771 -1.66723,0.895707 -2.92199,1.07628 -0.55851,0.08038 -1.29159,0.247059 -1.62905,0.37038 -0.66633,0.243526 -1.00714,0.07427 -0.84887,-0.421717 z m 2.83751,-0.694031 c 0.9078,-0.168041 1.80015,-0.572433 2.42578,-1.099347 0.54687,-0.460676 0.48478,-0.710958 -0.30394,-1.224477 l -0.44662,-0.290774 -1.31221,1.26014 c -0.79056,0.758719 -1.26657,1.305318 -1.19732,1.373865 0.0635,0.06232 0.43862,0.05393 0.8343,-0.0194 z m 0.0956,-2.354497 c 0.15022,0.02621 0.40756,-0.131965 0.59562,-0.366059 0.26908,-0.334762 0.27526,-0.483262 0.0334,-0.791361 -0.2542,-0.323624 -0.3188,-0.331597 -0.44171,-0.05346 -0.0791,0.179213 -0.24763,0.482211 -0.37436,0.673417 -0.2498,0.376986 -0.21856,0.466764 0.18714,0.537478 z m 3.81688,0.424065 c 0.24792,0.07346 0.91899,0.06901 1.49126,-0.01006 0.99277,-0.136733 1.0665,-0.176817 1.60797,-0.874231 0.75589,-0.973631 2.27116,-4.137966 2.4378,-5.090842 0.18257,-1.043995 -0.29853,-2.388844 -1.20433,-3.36647 -0.69205,-0.746977 -0.73373,-0.766317 -0.97413,-0.452977 -0.30714,0.400291 -1.03139,0.169199 -1.4152,-0.451527 -0.30808,-0.498238 -0.49526,-0.355515 -0.65808,0.50169 -0.0711,0.374405 -0.23578,0.679425 -0.41372,0.766255 -0.24909,0.121544 -0.38423,0.03062 -0.85838,-0.577766 -0.32622,-0.41848 -0.61276,-0.671521 -0.68185,-0.601744 -0.0653,0.06639 -0.10429,0.52925 -0.0862,1.029068 0.0306,0.846188 -0.0139,0.955531 -0.63927,1.587589 -1.19963,1.211523 -1.38652,2.323344 -0.58706,3.491829 1.07144,1.565991 3.85672,2.390239 4.81313,1.424324 0.19739,-0.199215 0.30067,-0.419841 0.22974,-0.490068 -0.17383,-0.172777 -1.22314,-0.383267 -1.36704,-0.274734 -0.0634,0.04781 -0.18587,0.131876 -0.27254,0.186821 -0.0867,0.05498 -0.22155,0.151694 -0.29998,0.214803 -0.24364,0.195823 -0.44467,-0.158892 -0.33039,-0.583074 0.0598,-0.222244 0.0111,-0.500404 -0.10741,-0.618167 -0.24985,-0.247978 -0.21187,-0.722593 0.13699,-1.700179 0.20674,-0.579304 0.30694,-0.703121 0.60368,-0.745838 0.53217,-0.07659 1.18478,0.677227 1.36656,1.578498 0.12237,0.606582 0.27364,0.863894 0.67284,1.144255 0.71107,0.4994 0.69467,0.889302 -0.0699,1.661446 -0.50917,0.51427 -0.76387,0.642543 -1.42849,0.719746 -1.14311,0.132767 -1.93957,-0.05645 -3.0946,-0.735042 -2.35974,-1.386425 -2.71617,-3.665686 -0.88504,-5.659539 l 0.78018,-0.849386 -0.51863,-0.591644 -0.51862,-0.591635 -0.26745,0.763134 c -0.50377,1.437464 -1.18507,1.314114 -1.44275,-0.261167 -0.0679,-0.414461 -0.15092,-0.780917 -0.18468,-0.814351 -0.0338,-0.03348 -0.4412,0.32274 -0.90531,0.791606 -0.98255,0.992294 -1.23784,1.643278 -1.08088,2.7562 0.0577,0.409342 0.29016,1.024568 0.51657,1.367197 0.62829,0.950827 5.09468,5.195697 5.63526,5.355793 z m 5.13259,0.222795 c 1.87844,0.264615 2.04573,0.06203 0.69293,-0.839255 -1.4141,-0.942098 -1.51428,-0.936825 -2.14489,0.112507 -0.26679,0.443924 -0.1537,0.500535 1.45195,0.726698 z m -8.58767,-10.870046 c 0.21488,0.898699 0.4293,0.831931 0.32743,-0.101939 -0.0921,-0.844407 0.18301,-0.969483 0.906,-0.411851 0.47452,0.365936 0.62176,0.399684 0.78148,0.178963 0.33961,-0.469189 0.802,-0.402529 1.41462,0.204039 0.61525,0.609271 0.71666,0.602587 0.83423,-0.0546 0.0974,-0.544372 0.47796,-0.925125 0.79653,-0.797334 0.52297,0.209983 0.41964,-0.128989 -0.31455,-1.032081 -1.26599,-1.557185 -1.43754,-2.660013 -0.58504,-3.761055 0.57542,-0.743197 0.55922,-1.037398 -0.0959,-1.742427 -0.40797,-0.439081 -0.61823,-0.544062 -0.95184,-0.475622 -0.88556,0.181788 -1.11759,0.491538 -2.12719,2.839783 -0.54429,1.26596 -1.24066,2.73556 -1.54748,3.265817 -0.74063,1.279922 -0.74644,1.32993 -0.14163,1.219067 l 0.52036,-0.0954 0.18282,0.764472 z m 2.71894,-7.168436 c 0.33243,-0.235637 0.5357,-0.02207 0.30092,0.316136 -0.10773,0.155164 -0.25246,0.179685 -0.37062,0.06274 -0.12121,-0.120166 -0.0951,-0.261951 0.0697,-0.378849 z m 2.55479,12.446564 c 0.0703,-0.07122 0.0749,-0.181704 0.01,-0.245815 -0.065,-0.06384 -0.17525,-0.05847 -0.24569,0.01267 -0.0703,0.07122 -0.075,0.181648 -0.01,0.245802 0.065,0.06385 0.17535,0.05843 0.24572,-0.01267 z m 5.66824,5.108074 c 0.61527,0.587021 2.29978,1.092008 2.60718,0.78156 0.13935,-0.141304 0.041,-0.362696 -0.36438,-0.819172 -0.53193,-0.598906 -0.83531,-0.756167 -4.5184,-2.341679 -0.16655,-0.07181 -0.23298,-0.01963 -0.26323,0.206655 -0.0337,0.251394 0.13197,0.417128 0.97943,0.98016 0.56095,0.372713 1.26269,0.909321 1.55946,1.192452 z m -1.01462,-3.368285 c 0.60452,0.07641 3.96511,0.299352 6.23823,0.413907 1.08113,0.05445 2.00672,-0.270829 2.17388,-0.764022 0.38681,-1.141353 -2.6275,-2.732259 -5.12587,-2.705385 -1.13413,0.01221 -2.747,0.545562 -3.28116,1.085029 -0.43796,0.442277 -0.95307,1.596534 -0.78625,1.761722 0.0702,0.06928 0.42161,0.163338 0.78117,0.208749 z m 3.66845,2.511026 c 0.87642,0.622245 2.04704,0.583989 2.71308,-0.08872 0.56045,-0.566035 0.48317,-0.854309 -0.30475,-1.136559 -0.64233,-0.230086 -5.03446,-0.53592 -5.20615,-0.362505 -0.0593,0.06061 0.3988,0.338072 1.01884,0.617351 0.62007,0.279279 1.42061,0.715946 1.77898,0.970393 z m -13.8872,-13.832798 c 0.1003,-0.02858 0.34345,-0.450172 0.53989,-0.936955 l 0.35732,-0.884959 -0.59855,0.524282 c -0.32921,0.288345 -0.65016,0.632769 -0.71332,0.765287 -0.12906,0.271309 0.13606,0.611702 0.4146,0.53236 z m 5.06255,-3.521061 0.7786,0.792317 0.89346,-0.52519 c 1.35959,-0.799219 1.40302,-1.126683 0.0764,-0.575817 -1.18766,0.493118 -1.66921,0.372444 -1.16284,-0.291417 l 0.26061,-0.341737 -0.44267,0.100082 c -0.84217,0.190377 -0.87384,-0.182838 -0.10255,-1.208413 0.41673,-0.554057 -0.0152,-0.524898 -0.64816,0.04374 -0.4519,0.406018 -0.69435,0.528092 -0.81383,0.4098 -0.0933,-0.09297 -0.21816,-0.119991 -0.27678,-0.06079 -0.21528,0.218026 -0.11178,0.475404 0.26892,0.667479 0.21478,0.108482 0.74091,0.553763 1.16906,0.989638 z"
           style="fill:#000128;fill-opacity:0" />
      </g>
    </g>
  </g>
</svg>
