 <svg xmlns="http://www.w3.org/2000/svg" width="50.2452mm" height="70.4675mm" version="1.1" viewBox="0 0 134495 199427">
            <defs>
            <style type="text/css">
                <![CDATA[
                .str0 {stroke:#FEFEFE;stroke-width:1157.19}
                .fil1 {fill:none;fill-rule:nonzero}
                .fil0 {fill:#FEFEFE;fill-rule:nonzero}
                .whiteSVG{fill: #b09536;}
                .blackSVG{fill: #b09536;}
                ]]>
            </style>
            </defs>
            <g id="Layer_x0020_1">
            <metadata id="CorelCorpID_0Corel-Layer"/>
           
            <path class="fil1 whiteSVG str0" d="M34845 102289c1771,1320 2893,2883 3544,4606l12111 -990c336,-9614 965,-19213 1420,-28824 266,-5644 352,-11294 664,-16934 346,-6230 646,-12475 1348,-18671 1032,-9093 5061,-28141 3863,-31835 -1509,-4654 -5346,-6620 -10207,-6642 -4779,-20 -9565,41 -14326,-277 -4473,-298 -8914,-1584 -13367,-2148 -154,-20 -1621,3246 -1801,5018 51,42 104,350 154,394 772,655 1499,1495 2245,2181 316,290 675,613 940,944 989,1234 2145,2426 2855,3810 612,1192 806,2656 982,4015 89,694 306,1537 -377,2211 -179,175 -64,714 1,1069 321,1754 609,3519 1029,5250 371,1529 895,2453 1357,3960 368,1194 744,1859 1153,3135 205,0 639,0 1015,0 192,0 470,1929 501,2588 16,380 -468,1041 -549,1458 -173,873 -214,1914 -338,2800 -344,2446 -703,4958 -901,7482 422,-936 842,-1837 1324,-2907 418,468 831,909 1201,1368 1723,2137 3568,4203 5109,6464 1409,2068 842,3732 -1256,5162 -953,649 -1945,1328 -2658,2204 -417,511 -597,1532 -397,2170 687,2193 252,3289 -1920,4066 -160,58 -320,120 -481,179 304,415 619,816 901,1238 536,802 638,1544 73,2468 -637,1045 -1067,2229 -1479,3392 -115,320 69,828 264,1165 1443,2481 2088,5025 607,7713 -1205,2184 -3275,2996 -5597,3383 -1013,168 -2038,338 -3018,637 -1463,446 -2934,687 -4408,757 106,2088 219,4174 265,6263 26,1157 426,1626 1531,1953 5204,1537 10254,3459 14844,6424 616,399 1190,861 1779,1301z"/>
            <path class="fil1 whiteSVG str0" d="M50919 146720c-104,-7211 -210,-14401 -302,-21612 -70,-5509 -289,-11016 -183,-16517l-11430 933c139,1323 85,2706 -165,4142 -879,5049 -2301,10018 -2954,15090 -496,3872 -353,7862 -134,11779 175,3164 885,6297 1363,9444 576,3797 -1334,6477 -3969,8828 -305,273 -642,510 -1013,800 1757,3071 3990,5166 7487,6148 103,29 2481,390 4675,-72 2197,-462 4921,-2274 6103,-5090 1181,-2809 661,-9373 595,-12816 -9,-367 -68,-691 -73,-1057zm-5628 9741c-959,774 -2362,625 -3136,-332 -774,-958 -625,-2361 333,-3135 957,-773 2361,-625 3134,333 774,956 625,2359 -331,3134zm1116 -37877c-958,774 -2362,625 -3136,-333 -773,-957 -625,-2360 333,-3134 957,-774 2361,-626 3134,332 774,958 626,2361 -331,3135z"/>
            </g>
            </svg>